<svg fill="none" xmlns="http://www.w3.org/2000/svg" viewBox="0 0 30 30">
    <path d="M24.515 6.768a5.913 5.913 0 00-1.92-1.308 5.824 5.824 0 00-4.533 0 5.914 5.914 0 00-1.921 1.308L15 7.931l-1.141-1.163a5.866 5.866 0 00-4.187-1.767c-1.57 0-3.077.635-4.188 1.767a6.094 6.094 0 00-1.734 4.267c0 1.6.624 3.136 1.734 4.268l1.141 1.162L15 25l8.374-8.535 1.141-1.162c.55-.56.986-1.226 1.284-1.958a6.133 6.133 0 000-4.62 6.042 6.042 0 00-1.284-1.957v0z" stroke="#777D82" stroke-width="2" stroke-linecap="round" stroke-linejoin="round"></path>
</svg>