<svg xmlns="http://www.w3.org/2000/svg" width="21" height="12" fill="none"><g clip-path="url(#A)" fill="#960000"><path d="M0 .069L5.327.07c.869.002 1.836-.208 2.581.091s1.28 1.106 1.889 1.707c.218.216.385.482.634.8L12.766.372c.153-.146.394-.289.596-.291l7.422-.007c.057 0 .113.023.216.045v8.363l-.614.025c-1.9.002-3.801-.015-5.699.018a1.52 1.52 0 0 0-.918.363l-3.231 3.11-.354-.284-2.504-2.45c-.549-.6-1.142-.801-1.958-.773L.616 8.51H0V.069zm10.488 3.366L8.002 1.02C7.801.835 7.463.7 7.187.696L1.253.683c-.192 0-.385.02-.604.032v7.186h.684l5.341.015a1.34 1.34 0 0 1 .816.325l3.007 2.942 3.027-2.94a1.35 1.35 0 0 1 .816-.329l5.4-.014h.622V.683c-2.302 0-4.554-.007-6.807.014-.182.001-.392.16-.537.298l-2.529 2.441zM1.302 7.227V1.324h1.052l4.57.014a1.35 1.35 0 0 1 .816.323l2.768 2.689 2.695-2.657c.284-.29.578-.391.987-.386l5.509.009v5.94h-.606c-1.662 0-3.324-.017-4.985.016-.293.006-.647.156-.863.353l-2.739 2.636L7.818 7.64a1.24 1.24 0 0 0-.985-.393l-4.926.008-.604-.028z"></path></g><defs><clipPath id="A"><path fill="#fff" d="M0 0h21v12H0z"></path></clipPath></defs></svg>