<svg fill="none" xmlns="http://www.w3.org/2000/svg" viewBox="0 0 17 14">
    <path d="M2.075 5.828c4.294-1.91 7.158-3.17 8.591-3.778C14.758.312 15.608.01 16.163 0c.122-.002.395.029.571.175.15.124.19.29.21.407.02.118.044.384.024.593-.221 2.378-1.18 8.15-1.669 10.814-.206 1.128-.613 1.506-1.007 1.543-.855.08-1.505-.578-2.334-1.132-1.296-.868-2.029-1.408-3.287-2.255-1.455-.979-.512-1.517.317-2.396.217-.23 3.987-3.73 4.06-4.048.009-.04.017-.188-.069-.266-.086-.079-.213-.052-.305-.03-.13.03-2.202 1.428-6.215 4.193-.587.413-1.12.613-1.597.603-.526-.012-1.538-.304-2.29-.553C1.648 7.34.915 7.179.978 6.659c.034-.27.4-.548 1.097-.83z" fill="#fff"></path>
</svg>