<svg fill="none" xmlns="http://www.w3.org/2000/svg" viewBox="0 0 20 19">
    <path fill-rule="evenodd" clip-rule="evenodd" d="M10 15H16C17.657 15 19 13.657 19 12V4C19 2.343 17.657 1 16 1H4C2.343 1 1 2.343 1 4V12C1 13.657 2.343 15 4 15H5.5V18L10 15Z" stroke="#0752E4" stroke-width="1.5" stroke-linecap="round" stroke-linejoin="round"></path>
    <path fill-rule="evenodd" clip-rule="evenodd" d="M10 15H16C17.657 15 19 13.657 19 12V4C19 2.343 17.657 1 16 1H4C2.343 1 1 2.343 1 4V12C1 13.657 2.343 15 4 15H5.5V18L10 15Z" stroke="#225FFB" stroke-width="1.5" stroke-linecap="round" stroke-linejoin="round"></path>
    <path fill-rule="evenodd" clip-rule="evenodd" d="M10 15H16C17.657 15 19 13.657 19 12V4C19 2.343 17.657 1 16 1H4C2.343 1 1 2.343 1 4V12C1 13.657 2.343 15 4 15H5.5V18L10 15Z" stroke="#0A71EB" stroke-width="1.5" stroke-linecap="round" stroke-linejoin="round"></path>
</svg>