<?xml version="1.0" encoding="UTF-8"?>
<svg width="40px" height="40px" viewBox="0 0 40 40" version="1.1" xmlns="http://www.w3.org/2000/svg" xmlns:xlink="http://www.w3.org/1999/xlink">
    <!-- Generator: sketchtool 49.3 (51167) - http://www.bohemiancoding.com/sketch -->
    <title>BA0844C3-BDF0-4DF5-A63E-3F8CAD9862ED</title>
    <desc>Created with sketchtool.</desc>
    <defs></defs>
    <g id="Kufar-UI-" stroke="none" stroke-width="1" fill="none" fill-rule="evenodd">
        <g id="Icons" transform="translate(-160.000000, -1479.000000)">
            <g id="user-pic-copy" transform="translate(160.000000, 1479.000000)">
                <circle id="bg" fill="#F6F7F7" fill-rule="evenodd" cx="20" cy="20" r="20"></circle>
                <circle id="border" stroke-opacity="0.2" stroke="#5C6871" stroke-width="1" cx="20" cy="20" r="19.5"></circle>
                <g id="Group" stroke-width="1" fill-rule="evenodd" transform="translate(11.000000, 11.000000)" fill="#869098">
                    <path d="M18,18 C17.9998875,17.858659 17.9997749,17.7173179 17.9997749,17.5759769 C17.9984246,17.3727772 17.991673,17.1699277 17.9741189,16.9674284 C17.939123,16.5616127 17.8667684,16.1589482 17.7518786,15.7690057 C17.6444155,15.4036898 17.4998187,15.0503956 17.3197759,14.7170595 C17.1973469,14.490517 17.0587139,14.2734283 16.9060152,14.067661 C16.8035033,13.9294712 16.6945775,13.7963002 16.5802503,13.6686147 C15.6965779,12.6816784 14.509421,12.0374153 13.284005,11.631833 C13.0532126,11.5553851 12.8200573,11.4871072 12.5849889,11.4261824 C12.3068229,11.3541696 12.0262937,11.2925445 11.7440767,11.2401397 C11.3772396,11.172212 11.0078144,11.119924 10.6371513,11.0817584 C10.1330316,11.0298205 9.62722397,11.0055439 9.1208537,11.0001751 C9.04107225,10.9999416 8.96129081,10.9999416 8.88150936,11.0001751 C8.37502657,11.0055439 7.86933147,11.0298205 7.36521174,11.0817584 C6.99443618,11.119924 6.62501094,11.172212 6.25828634,11.2401397 C5.97606932,11.2925445 5.69542766,11.3541696 5.4172616,11.4261824 C5.1823058,11.4871072 4.9490379,11.5553851 4.71824558,11.631833 C3.49282955,12.0374153 2.30578512,12.6816784 1.42211275,13.6686147 C1.30767307,13.7963002 1.19885973,13.9294712 1.09623536,14.067661 C0.960528125,14.2505523 0.835961041,14.4424307 0.723996949,14.6418954 C0.539228067,14.9710298 0.389342469,15.320706 0.276478164,15.6829872 C0.156299621,16.0683779 0.0780935472,16.4670741 0.0373588727,16.8697385 C0.0171040622,17.0694367 0.00742676386,17.2697185 0.00326327503,17.4704671 C0.00202548105,17.6469392 0.000900213801,17.8234112 0,18 L18,18 Z" id="Path"></path>
                    <circle id="Oval-12" cx="9" cy="4" r="4"></circle>
                </g>
            </g>
        </g>
    </g>
</svg>