<svg fill="none" xmlns="http://www.w3.org/2000/svg" viewBox="0 0 17 16">
    <path d="M14.441 1.561c-.397-.365-2.004-1.533-5.586-1.55 0 0-4.222-.255-6.28 1.633C1.429 2.79 1.025 4.464.984 6.545c-.042 2.078-.096 5.974 3.659 7.03h.003l-.003 1.61s-.023.653.406.784c.519.16.826-.336 1.322-.87.272-.295.647-.724.932-1.053 2.567.214 4.542-.279 4.766-.352.519-.17 3.454-.545 3.931-4.44.493-4.008-.24-6.547-1.559-7.693zm.436 7.41c-.404 3.253-2.782 3.458-3.22 3.599-.186.06-1.921.493-4.104.349 0 0-1.627 1.962-2.132 2.471-.08.08-.173.112-.234.096-.087-.022-.112-.125-.109-.275 0-.218.013-2.68.013-2.68-.003 0-.003 0 0 0-3.179-.88-2.993-4.196-2.958-5.931.035-1.735.362-3.16 1.332-4.117C5.203.908 8.79 1.142 8.79 1.142c3.029.012 4.479.925 4.815 1.229 1.117.96 1.687 3.25 1.27 6.6z" fill="#fff"></path>
    <path d="M10.332 6.66a.203.203 0 01-.202-.192c-.035-.688-.359-1.024-1.018-1.06a.204.204 0 01.022-.406c.871.048 1.357.548 1.402 1.444a.2.2 0 01-.192.211c-.006.003-.01.003-.012.003z" fill="#fff"></path>
    <path d="M11.368 7.006h-.003a.204.204 0 01-.199-.208c.016-.691-.182-1.251-.605-1.712-.42-.461-.999-.711-1.764-.766a.201.201 0 01-.185-.217.201.201 0 01.217-.186c.865.064 1.546.365 2.033.896.49.535.727 1.204.71 1.995a.205.205 0 01-.204.198z" fill="#fff"></path>
    <path d="M12.43 7.422a.2.2 0 01-.201-.202c-.01-1.239-.365-2.183-1.089-2.89-.713-.698-1.62-1.054-2.685-1.063a.204.204 0 010-.407c1.174.01 2.173.404 2.964 1.178.794.775 1.2 1.844 1.213 3.176a.2.2 0 01-.201.208c.003 0 .003 0 0 0zM9.16 9.167s.284.026.438-.163l.298-.375c.144-.185.492-.304.832-.115a8.3 8.3 0 01.742.474c.228.166.689.55.692.554.22.185.272.457.122.749v.006a3.122 3.122 0 01-.621.765c-.004 0-.004.003-.007.003-.214.18-.426.282-.63.305-.026.006-.055.006-.093.006a.873.873 0 01-.27-.042l-.006-.01c-.32-.089-.851-.313-1.735-.803a10.301 10.301 0 01-1.46-.963 7.475 7.475 0 01-.656-.583l-.022-.022-.022-.023a23.674 23.674 0 00-.023-.022l-.022-.023a8.034 8.034 0 01-.583-.656 10.122 10.122 0 01-.963-1.46c-.49-.886-.714-1.418-.804-1.735l-.01-.006a.872.872 0 01-.041-.269c0-.038 0-.067.006-.093.026-.208.128-.416.304-.63 0-.004.004-.004.004-.007a3.05 3.05 0 01.765-.62H5.4c.288-.151.56-.1.75.12 0 0 .387.465.553.692.157.215.368.554.474.743.189.34.07.688-.115.832l-.375.298c-.189.154-.163.439-.163.439s.554 2.106 2.634 2.634z" fill="#fff"></path>
</svg>