<svg width="0" height="0" class="hidden">
  <symbol fill="none" xmlns="http://www.w3.org/2000/svg" viewBox="0 0 16 16" id="x">
    <path fill-rule="evenodd" clip-rule="evenodd" d="M8 0a8 8 0 100 16A8 8 0 008 0zM6.04 4.626A1 1 0 104.626 6.04L6.586 8l-1.96 1.96a1 1 0 001.414 1.414L8 9.414l1.96 1.96a1 1 0 001.414-1.414L9.414 8l1.96-1.96A1 1 0 009.96 4.626L8 6.586l-1.96-1.96z" fill="#AAAFB4"></path>
  </symbol>
  <symbol fill="none" xmlns="http://www.w3.org/2000/svg" viewBox="0 0 24 24" id="cross">
    <path d="M8 8l8 8m0-8l-8 8" stroke="#777D82" stroke-width="1.5" stroke-linecap="round" stroke-linejoin="round"></path>
  </symbol>
  <symbol fill="none" xmlns="http://www.w3.org/2000/svg" viewBox="0 0 12 12" id="rate-full">
    <g clip-path="url(#clip0)">
      <path d="M6.712.59l1.504 3.17 3.078.327a.788.788 0 01.418 1.398L9.257 7.504l.76 3.394a.787.787 0 01-1.178.846l-2.84-1.727-2.84 1.726a.789.789 0 01-1.18-.846l.764-3.393L.288 5.486A.788.788 0 01.706 4.09l3.078-.326L5.288.59a.789.789 0 011.424 0z" fill="#FF9431"></path>
    </g>
    <defs>
      <clipPath id="clip0">
        <path fill="#fff" d="M0 0h12v12H0z"></path>
      </clipPath>
    </defs>
  </symbol>

  <symbol fill="none" xmlns="http://www.w3.org/2000/svg" viewBox="0 0 12 12" id="man">
    <path d="M7.6 1.6c0 .68-.52 1.2-1.2 1.2-.68 0-1.2-.52-1.2-1.2C5.2.92 5.72.4 6.4.4c.68 0 1.2.52 1.2 1.2zm1.72 4.64c-.24-.08-1.68-.76-1.68-.76l-.8-1.6c-.28-.56-.44-.68-.8-.68h-.56c-.28 0-.4.08-.56.2L3.4 4.6c-.12.08-.2.16-.28.32l-.32 2c-.04.32.12.44.36.48.16.04.4-.04.48-.28L4 5.28l1-.68c-.16.68-.32 1.44-.4 1.72-.08.44.16.76.32 1.04.16.24 2.4 3.48 2.68 3.84.28.36.56.52.96.32.36-.16.28-.6.08-.88S6.2 6.96 6.2 6.96l.36-1.52s.28.36.4.52c.08.08.12.12.32.2.2.12 1.2.52 1.52.64.28.12.6.16.76-.08.12-.16-.04-.4-.24-.48z" fill="#777D82"></path>
    <path d="M4.32 7.6l-.48 1.48-1.24 1.6c-.2.28-.36.6 0 .84.4.28.68-.08.88-.28.2-.2.92-1.12 1.12-1.36.16-.16.2-.28.28-.44.04-.08.2-.48.28-.72L4.32 7.6z" fill="#777D82"></path>
  </symbol>
  <symbol fill="none" xmlns="http://www.w3.org/2000/svg" viewBox="0 0 17 16" id="vb">
    <path d="M14.441 1.561c-.397-.365-2.004-1.533-5.586-1.55 0 0-4.222-.255-6.28 1.633C1.429 2.79 1.025 4.464.984 6.545c-.042 2.078-.096 5.974 3.659 7.03h.003l-.003 1.61s-.023.653.406.784c.519.16.826-.336 1.322-.87.272-.295.647-.724.932-1.053 2.567.214 4.542-.279 4.766-.352.519-.17 3.454-.545 3.931-4.44.493-4.008-.24-6.547-1.559-7.693zm.436 7.41c-.404 3.253-2.782 3.458-3.22 3.599-.186.06-1.921.493-4.104.349 0 0-1.627 1.962-2.132 2.471-.08.08-.173.112-.234.096-.087-.022-.112-.125-.109-.275 0-.218.013-2.68.013-2.68-.003 0-.003 0 0 0-3.179-.88-2.993-4.196-2.958-5.931.035-1.735.362-3.16 1.332-4.117C5.203.908 8.79 1.142 8.79 1.142c3.029.012 4.479.925 4.815 1.229 1.117.96 1.687 3.25 1.27 6.6z" fill="#fff"></path>
    <path d="M10.332 6.66a.203.203 0 01-.202-.192c-.035-.688-.359-1.024-1.018-1.06a.204.204 0 01.022-.406c.871.048 1.357.548 1.402 1.444a.2.2 0 01-.192.211c-.006.003-.01.003-.012.003z" fill="#fff"></path>
    <path d="M11.368 7.006h-.003a.204.204 0 01-.199-.208c.016-.691-.182-1.251-.605-1.712-.42-.461-.999-.711-1.764-.766a.201.201 0 01-.185-.217.201.201 0 01.217-.186c.865.064 1.546.365 2.033.896.49.535.727 1.204.71 1.995a.205.205 0 01-.204.198z" fill="#fff"></path>
    <path d="M12.43 7.422a.2.2 0 01-.201-.202c-.01-1.239-.365-2.183-1.089-2.89-.713-.698-1.62-1.054-2.685-1.063a.204.204 0 010-.407c1.174.01 2.173.404 2.964 1.178.794.775 1.2 1.844 1.213 3.176a.2.2 0 01-.201.208c.003 0 .003 0 0 0zM9.16 9.167s.284.026.438-.163l.298-.375c.144-.185.492-.304.832-.115a8.3 8.3 0 01.742.474c.228.166.689.55.692.554.22.185.272.457.122.749v.006a3.122 3.122 0 01-.621.765c-.004 0-.004.003-.007.003-.214.18-.426.282-.63.305-.026.006-.055.006-.093.006a.873.873 0 01-.27-.042l-.006-.01c-.32-.089-.851-.313-1.735-.803a10.301 10.301 0 01-1.46-.963 7.475 7.475 0 01-.656-.583l-.022-.022-.022-.023a23.674 23.674 0 00-.023-.022l-.022-.023a8.034 8.034 0 01-.583-.656 10.122 10.122 0 01-.963-1.46c-.49-.886-.714-1.418-.804-1.735l-.01-.006a.872.872 0 01-.041-.269c0-.038 0-.067.006-.093.026-.208.128-.416.304-.63 0-.004.004-.004.004-.007a3.05 3.05 0 01.765-.62H5.4c.288-.151.56-.1.75.12 0 0 .387.465.553.692.157.215.368.554.474.743.189.34.07.688-.115.832l-.375.298c-.189.154-.163.439-.163.439s.554 2.106 2.634 2.634z" fill="#fff"></path>
  </symbol>
  <symbol fill="none" xmlns="http://www.w3.org/2000/svg" viewBox="0 0 17 14" id="tg">
    <path d="M2.075 5.828c4.294-1.91 7.158-3.17 8.591-3.778C14.758.312 15.608.01 16.163 0c.122-.002.395.029.571.175.15.124.19.29.21.407.02.118.044.384.024.593-.221 2.378-1.18 8.15-1.669 10.814-.206 1.128-.613 1.506-1.007 1.543-.855.08-1.505-.578-2.334-1.132-1.296-.868-2.029-1.408-3.287-2.255-1.455-.979-.512-1.517.317-2.396.217-.23 3.987-3.73 4.06-4.048.009-.04.017-.188-.069-.266-.086-.079-.213-.052-.305-.03-.13.03-2.202 1.428-6.215 4.193-.587.413-1.12.613-1.597.603-.526-.012-1.538-.304-2.29-.553C1.648 7.34.915 7.179.978 6.659c.034-.27.4-.548 1.097-.83z" fill="#fff"></path>
  </symbol>
  <symbol fill="none" xmlns="http://www.w3.org/2000/svg" viewBox="0 0 17 16" id="wa">
    <path d="M13.733 2.335C12.263.822 10.23 0 8.155 0 3.744 0 .198 3.59.24 7.957c0 1.384.39 2.724 1.038 3.935L.155 16l4.194-1.081a7.721 7.721 0 003.763.951c4.367 0 7.913-3.589 7.913-7.956a7.848 7.848 0 00-2.292-5.579zM8.155 14.53c-1.168 0-2.335-.303-3.33-.908l-.26-.13-2.508.648.65-2.464-.174-.26C.63 8.346 1.54 4.281 4.653 2.378c3.113-1.902 7.134-.994 9.037 2.12 1.903 3.113.995 7.134-2.119 9.037a6.304 6.304 0 01-3.416.995zm3.805-4.8l-.476-.216s-.691-.303-1.124-.52c-.043 0-.086-.043-.13-.043a.625.625 0 00-.302.087s-.043.043-.649.735a.238.238 0 01-.216.13H9.02a.328.328 0 01-.173-.087L8.63 9.73c-.475-.216-.908-.476-1.254-.822-.086-.086-.216-.173-.302-.26-.303-.302-.606-.648-.822-1.037l-.043-.087c-.043-.043-.043-.086-.087-.173 0-.086 0-.173.044-.216 0 0 .173-.216.302-.346.087-.086.13-.216.217-.303.086-.13.13-.302.086-.432-.043-.216-.562-1.384-.692-1.643a.5.5 0 00-.303-.216h-.475c-.087 0-.173.043-.26.043l-.043.043c-.086.043-.173.13-.26.173-.086.087-.13.173-.216.26a2.206 2.206 0 00-.475 1.34c0 .346.086.692.216.995l.043.13c.39.821.908 1.556 1.6 2.205l.173.173c.13.13.26.216.346.346a7.727 7.727 0 003.114 1.643c.13.043.302.043.432.086h.432c.217 0 .476-.086.65-.172.129-.087.215-.087.302-.174l.086-.086c.087-.086.173-.13.26-.216.086-.087.173-.173.216-.26.086-.173.13-.389.173-.605v-.303s-.043-.043-.13-.086z" fill="#fff"></path>
  </symbol>
  <symbol fill="none" xmlns="http://www.w3.org/2000/svg" viewBox="0 0 16 16" id="catcheck">
    <path fill-rule="evenodd" clip-rule="evenodd" d="M12.263 3.827l-3.475-1.49a2 2 0 00-1.576 0l-3.474 1.49a.667.667 0 00-.405.612v3.502a4 4 0 001.676 3.255l2.216 1.584a1.333 1.333 0 001.55 0l2.217-1.584a4 4 0 001.675-3.255V4.44a.667.667 0 00-.404-.612zM10.78 6.625a1 1 0 00-1.562-1.25L7.251 7.836l-.544-.543a1 1 0 00-1.414 1.414l.938.938a1.5 1.5 0 002.232-.123l2.318-2.897z" fill="#23B554"></path>
  </symbol>
  <symbol fill="none" xmlns="http://www.w3.org/2000/svg" viewBox="0 0 16 16" id="catvid">
    <path fill-rule="evenodd" clip-rule="evenodd" d="M2.673 7.405c-.006.13-.006.285-.006.595s0 .464.006.595a5 5 0 004.732 4.731c.13.007.285.007.595.007s.464 0 .595-.007a5 5 0 004.731-4.731c.007-.13.007-.286.007-.595 0-.31 0-.464-.007-.595a5 5 0 00-4.731-4.732c-.13-.006-.286-.006-.595-.006-.31 0-.464 0-.595.006a5 5 0 00-4.732 4.732zM8.13 6.359l1.351.773a1 1 0 010 1.736l-1.351.773a1.2 1.2 0 01-1.796-1.042V7.4A1.2 1.2 0 018.13 6.36z" fill="#FC511B"></path>
  </symbol>
  <symbol fill="none" xmlns="http://www.w3.org/2000/svg" viewBox="0 0 40 40" id="camera">
    <path d="M8.333 11.667H10a3.333 3.333 0 003.333-3.334A1.667 1.667 0 0115 6.667h10a1.667 1.667 0 011.667 1.666A3.333 3.333 0 0030 11.667h1.667A3.333 3.333 0 0135 15v15a3.333 3.333 0 01-3.333 3.333H8.333A3.333 3.333 0 015 30V15a3.334 3.334 0 013.333-3.333" stroke="#fff" stroke-width="1.5" stroke-linecap="round" stroke-linejoin="round"></path>
    <path d="M20 26.667a5 5 0 100-10 5 5 0 000 10z" stroke="#fff" stroke-width="1.5" stroke-linecap="round" stroke-linejoin="round"></path>
  </symbol>
  <symbol fill="none" xmlns="http://www.w3.org/2000/svg" viewBox="0 0 24 24" id="bed">
    <path clip-rule="evenodd" d="M20 12H4a2 2 0 00-2 2v2.933a1 1 0 001 1h18a1 1 0 001-1V14a2 2 0 00-2-2z" stroke="#777D82" stroke-width="1.5" stroke-linecap="round" stroke-linejoin="round"></path>
    <path d="M4 12V6.933a3 3 0 013-3h10a3 3 0 013 3V12m1 6v1.93M3 18v1.93" stroke="#777D82" stroke-width="1.5" stroke-linecap="round" stroke-linejoin="round"></path>
    <path d="M7.5 12v0a3 3 0 013-3h3a3 3 0 013 3v0" stroke="#777D82" stroke-width="1.5" stroke-linecap="round" stroke-linejoin="round"></path>
  </symbol>
  <symbol fill="none" xmlns="http://www.w3.org/2000/svg" viewBox="0 0 24 24" id="bedrooms">
    <path d="M12.402 11.554v.88M5.5 2.744l8.344 1.964A1.5 1.5 0 0115 6.168v15.076L6.656 19.28A1.5 1.5 0 015.5 17.82V2.744zm0 0h4.687" stroke="#777D82" stroke-width="1.5" stroke-linecap="round" stroke-linejoin="round"></path>
    <path d="M10.188 2.744H17a1.5 1.5 0 011.5 1.5v14.618" stroke="#777D82" stroke-width="1.5" stroke-linecap="round" stroke-linejoin="round"></path>
  </symbol>
   <symbol fill="none" xmlns="http://www.w3.org/2000/svg" viewBox="0 0 24 24" id="size">
    <path d="M11 17H7v-4m10-6L7 17m6-10h4v4" stroke="#777D82" stroke-width="1.5" stroke-linecap="round" stroke-linejoin="round"></path>
    <path d="M21 19a2 2 0 01-2 2H5c-1.11 0-2-.89-2-2V5a2 2 0 012-2h14a2 2 0 012 2v14z" stroke="#777D82" stroke-width="1.5" stroke-linecap="round" stroke-linejoin="round"></path>
  </symbol>
  <symbol fill="none" xmlns="http://www.w3.org/2000/svg" viewBox="0 0 40 40" id="monitor">
    <path clip-rule="evenodd" d="M30.72 28.337H9.28a4.287 4.287 0 01-4.286-4.287V9.28a4.287 4.287 0 014.287-4.286h21.437a4.287 4.287 0 014.289 4.287v14.767a4.286 4.286 0 01-4.287 4.289z" stroke="#5E6165" stroke-width="1.5" stroke-linecap="round" stroke-linejoin="round"></path>
    <path d="M35.007 21.667H4.994m18.342 6.67l.834 6.67m-7.504-6.67l-.834 6.67m-2.262-.001h12.86" stroke="#5E6165" stroke-width="1.5" stroke-linecap="round" stroke-linejoin="round"></path>
  </symbol>
  <symbol fill="none" xmlns="http://www.w3.org/2000/svg" viewBox="0 0 40 40" id="fork">
    <path d="M10.834 19.25L10.817 35m.016-20.75V5M5 5.14v7.587-.15c0 3.681 2.612 6.666 5.833 6.666 3.222 0 5.834-2.985 5.834-6.666v.15V5.14m12.499 16.527V35" stroke="#5E6165" stroke-width="1.5" stroke-linecap="round" stroke-linejoin="round"></path>
    <path clip-rule="evenodd" d="M23.333 15c0 3.682 2.612 6.667 5.833 6.667C32.388 21.667 35 18.682 35 15c0-5.523-2.612-10-5.834-10-3.221 0-5.833 4.477-5.833 10z" stroke="#5E6165" stroke-width="1.5" stroke-linecap="round" stroke-linejoin="round"></path>
  </symbol>
  <symbol fill="none" xmlns="http://www.w3.org/2000/svg" viewBox="0 0 40 40" id="park">
    <rect x="4.994" y="4.994" width="30.012" height="30.012" rx="5" stroke="#777D82" stroke-width="1.5" stroke-linecap="round" stroke-linejoin="round"></rect>
    <path d="M16.667 26.667V13.333h4.247c2.257 0 4.086 1.706 4.086 3.81v0c0 2.104-1.83 3.81-4.086 3.81h-4.247" stroke="#777D82" stroke-width="1.5" stroke-linecap="round" stroke-linejoin="round"></path>
  </symbol>
  <symbol fill="none" xmlns="http://www.w3.org/2000/svg" viewBox="0 0 40 40" id="temp">
    <path d="M20 13.333v10m2.357.977a3.333 3.333 0 11-4.714 4.714 3.333 3.333 0 014.714-4.714" stroke="#5E6165" stroke-width="1.5" stroke-linecap="round" stroke-linejoin="round"></path>
    <path clip-rule="evenodd" d="M15 20.038V10a5 5 0 1110 0v10.038c2.014 1.522 3.334 3.912 3.334 6.629a8.334 8.334 0 01-16.667 0c0-2.717 1.32-5.109 3.333-6.629z" stroke="#5E6165" stroke-width="1.5" stroke-linecap="round" stroke-linejoin="round"></path>
  </symbol>
  <symbol fill="none" xmlns="http://www.w3.org/2000/svg" viewBox="0 0 24 24" id="clock">
    <path d="M8.557 3.687a8.998 8.998 0 0111.756 4.87 8.998 8.998 0 01-4.87 11.756A8.998 8.998 0 118.557 3.687" stroke="#777D82" stroke-width="1.5" stroke-linecap="round" stroke-linejoin="round"></path>
    <path d="M11.718 7.985v4.651l3.656 2.229" stroke="#777D82" stroke-width="1.5" stroke-linecap="round" stroke-linejoin="round"></path>
  </symbol>
  <symbol fill="none" xmlns="http://www.w3.org/2000/svg" viewBox="0 0 24 24" id="k_z">
    <path d="M17.344 20.788H5.656C4.19 20.788 3 19.608 3 18.155s1.19-2.632 2.656-2.632h11.688c1.466 0 2.656 1.18 2.656 2.632 0 1.453-1.19 2.633-2.656 2.633z" stroke="#777D82" stroke-width="1.5" stroke-miterlimit="10"></path>
    <path d="M17.344 20.788c-1.467 0-2.657-1.18-2.657-2.633s1.19-2.632 2.657-2.632c1.466 0 2.656 1.18 2.656 2.632 0 1.453-1.19 2.633-2.656 2.633z" stroke="#777D82" stroke-width="1.5" stroke-miterlimit="10"></path>
    <path d="M18.405 13.943c2.125-2.106 1.063-5.265-2.125-5.265-3.187 0-4.25-1.053-4.25-3.159S8.843 2.36 6.718 3.413c0 0 2.858 1.695 1.965 5.055-.892 3.359 4.41 4.422 6.535 3.37 2.125-1.054 3.187 2.105 3.187 2.105zm.894-9.58L4.53 20.208" stroke="#777D82" stroke-width="1.5" stroke-miterlimit="10" stroke-linecap="round" stroke-linejoin="round"></path>
    <path d="M5 21L20.828 4.363" stroke="#fff" stroke-miterlimit="10"></path>
  </symbol>
  <symbol fill="none" xmlns="http://www.w3.org/2000/svg" viewBox="0 0 24 24" id="p_n">
    <path d="M12.034 11.043c8.874 0 7.598 9.652 5.069 9.652-2.53 0-2.53-1.072-5.07-1.072-2.125 0-2.125 1.072-4.25 1.072-2.126 0-3.189-9.652 4.25-9.652zm-7.44 1.609c.88 0 1.594-1.2 1.594-2.681 0-1.48-.713-2.681-1.594-2.681C3.714 7.29 3 8.49 3 9.97c0 1.481.714 2.682 1.594 2.682zm14.879-1.072c.88 0 1.594-1.2 1.594-2.682 0-1.48-.713-2.68-1.594-2.68-.88 0-1.594 1.2-1.594 2.68 0 1.481.714 2.681 1.594 2.681zm-5.314-3.218c.88 0 1.594-1.2 1.594-2.68C15.753 4.2 15.039 3 14.159 3c-.88 0-1.595 1.2-1.595 2.681 0 1.48.714 2.681 1.595 2.681zm-5.313 0c.88 0 1.594-1.2 1.594-2.68C10.44 4.2 9.727 3 8.846 3c-.88 0-1.594 1.2-1.594 2.681 0 1.48.714 2.681 1.594 2.681z" stroke="#777D82" stroke-width="1.5" stroke-miterlimit="10"></path>
    <path d="M19.473 3.536L4.595 19.623" stroke="#777D82" stroke-width="1.5" stroke-miterlimit="10" stroke-linecap="round" stroke-linejoin="round"></path>
    <path d="M5.083 20.3l15.25-16.558" stroke="#fff" stroke-miterlimit="10"></path>
  </symbol>
  <symbol fill="none" xmlns="http://www.w3.org/2000/svg" viewBox="0 0 24 24" id="v_b">
    <path d="M13.725 4.432c-2.2 6.171-4.911 10.845-6.044 10.457C6.55 14.501 7.41 9.171 9.62 3l4.105 1.432z" stroke="#777D82" stroke-width="1.5" stroke-miterlimit="10" stroke-linejoin="round"></path>
    <path d="M4 18.744l4.106 1.433" stroke="#777D82" stroke-width="1.5" stroke-miterlimit="10" stroke-linecap="round" stroke-linejoin="round"></path>
    <path d="M7.681 14.89l-1.633 4.565M18.713 4.12c.806 6.494.49 11.878-.708 12.018-1.197.14-2.82-5.007-3.626-11.501l4.334-.517z" stroke="#777D82" stroke-width="1.5" stroke-miterlimit="10" stroke-linejoin="round"></path>
    <path d="M16.436 21.21l4.324-.527m-2.755-4.545l.599 4.814m1.688-17.715L5.046 19.39" stroke="#777D82" stroke-width="1.5" stroke-miterlimit="10" stroke-linecap="round" stroke-linejoin="round"></path>
    <path d="M4.501 21.006L20.792 3.711" stroke="#fff" stroke-miterlimit="10" stroke-linecap="round" stroke-linejoin="round"></path>
  </symbol>
  <symbol fill="none" xmlns="http://www.w3.org/2000/svg" viewBox="0 0 24 24" id="letter">
    <path d="M3.36 9.315v8.925c0 1.06.86 1.92 1.92 1.92h13.44c1.06 0 1.92-.86 1.92-1.92V9.315m-11.404 4.97l-5.31 5.309m16.148 0l-5.308-5.31" stroke="#777D82" stroke-width="1.5" stroke-linecap="round" stroke-linejoin="round"></path>
    <path d="M6.24 6.357L4.212 7.722a1.92 1.92 0 000 3.186l5.64 3.794a3.85 3.85 0 004.298 0l5.64-3.793a1.92 1.92 0 000-3.187l-2.03-1.365" stroke="#777D82" stroke-width="1.5" stroke-linecap="round" stroke-linejoin="round"></path>
    <path d="M17.76 12.274V3.746a.96.96 0 00-.96-.96H7.2a.96.96 0 00-.96.96v8.528M9.12 6.24h5.76M9.12 9.6h5.76" stroke="#777D82" stroke-width="1.5" stroke-linecap="round" stroke-linejoin="round"></path>
  </symbol>
  <symbol fill="none" xmlns="http://www.w3.org/2000/svg" viewBox="0 0 24 24" id="calendar">
    <path d="M3.093 9.404h17.824m-4.475 3.906h.01m-4.447 0h.009m-4.456 0h.01m8.874 3.886h.01m-4.447 0h.009m-4.456 0h.01M16.043 2v3.29M7.965 2v3.29" stroke="#777D82" stroke-width="1.5" stroke-linecap="round" stroke-linejoin="round"></path>
    <path clip-rule="evenodd" d="M16.238 3.58H7.771C4.834 3.58 3 5.214 3 8.221v9.05C3 20.326 4.834 22 7.771 22h8.458C19.175 22 21 20.355 21 17.348V8.222c.01-3.007-1.816-4.643-4.762-4.643z" stroke="#777D82" stroke-width="1.5" stroke-linecap="round" stroke-linejoin="round"></path>
  </symbol>
  <symbol fill="none" xmlns="http://www.w3.org/2000/svg" viewBox="0 0 24 24" id="18">
    <rect x="2" y="3" width="20" height="18" rx="5" stroke="#777D82" stroke-width="1.5" stroke-linecap="round" stroke-linejoin="round"></rect>
    <path d="M7.855 9.524V15H6.428v-3.783l-.93.307-.34-1.261 2.24-.739h.457zm5.683 3.974c0 .332-.094.62-.282.863-.183.238-.437.42-.763.548-.321.127-.684.19-1.087.19-.41 0-.777-.063-1.104-.19a1.788 1.788 0 01-.763-.548 1.398 1.398 0 01-.274-.863c0-.602.316-1.045.946-1.327-.47-.32-.705-.736-.705-1.244 0-.47.177-.838.53-1.104.355-.265.811-.398 1.37-.398.553 0 1.006.133 1.36.398.354.266.531.633.531 1.104 0 .508-.235.923-.705 1.244.63.282.946.725.946 1.327zm-2.132-2.953a.724.724 0 00-.432.124.387.387 0 00-.166.324c0 .122.047.227.141.315.1.089.252.183.457.282.204-.1.354-.193.448-.282a.445.445 0 00.14-.323.361.361 0 00-.173-.316.673.673 0 00-.415-.124zm0 3.418c.238 0 .417-.047.539-.141a.471.471 0 00.182-.382.495.495 0 00-.182-.39c-.122-.105-.304-.202-.548-.29a1.784 1.784 0 00-.539.29.495.495 0 00-.182.39c0 .155.06.282.182.382.122.094.304.141.548.141zm4.536-1.054h-1.353v-1.194h1.353V10.32h1.344v1.394h1.344v1.194h-1.344v1.394h-1.344V12.91z" fill="#777D82"></path>
  </symbol>
  <symbol fill="none" xmlns="http://www.w3.org/2000/svg" viewBox="0 0 20 20" id="star">
    <path d="M11.187.983l2.506 5.286 5.13.544a1.313 1.313 0 01.697 2.33l-4.092 3.364 1.266 5.656a1.312 1.312 0 01-1.963 1.41L10 16.694l-4.736 2.878a1.315 1.315 0 01-1.964-1.41l1.271-5.655L.48 9.143a1.313 1.313 0 01.697-2.326l5.13-.544L8.812.983a1.314 1.314 0 012.375 0z" fill="#FF9431"></path>
  </symbol>
  <symbol fill="none" xmlns="http://www.w3.org/2000/svg" viewBox="0 0 20 20" id="eye">
    <path clip-rule="evenodd" d="M2.598 10.39a.822.822 0 010-.78C4.175 6.694 7.088 4.167 10 4.167s5.825 2.527 7.4 5.443a.821.821 0 010 .779c-1.576 2.916-4.489 5.443-7.401 5.443-2.913 0-5.825-2.527-7.402-5.444z" stroke="#D8DEE0" stroke-width="1.5" stroke-linecap="round" stroke-linejoin="round"></path>
    <path d="M11.768 8.232a2.5 2.5 0 11-3.536 3.536 2.5 2.5 0 013.536-3.536" stroke="#D8DEE0" stroke-width="1.429" stroke-linecap="round" stroke-linejoin="round"></path>
  </symbol>
  <symbol fill="none" xmlns="http://www.w3.org/2000/svg" viewBox="0 0 20 20" id="cal">
    <path d="M13.334 1.667V5M6.667 1.667V5M2.5 7.5h15" stroke="#D8DEE0" stroke-width="1.5" stroke-linecap="round" stroke-linejoin="round"></path>
    <path clip-rule="evenodd" d="M15.833 3.333H4.167C3.246 3.333 2.5 4.08 2.5 5v10.833c0 .921.746 1.667 1.667 1.667h11.666c.921 0 1.667-.746 1.667-1.667V5c0-.92-.746-1.667-1.667-1.667z" stroke="#D8DEE0" stroke-width="1.5" stroke-linecap="round" stroke-linejoin="round"></path>
    <path d="M10.01 10.607a.208.208 0 10.002.416.208.208 0 00-.001-.416m4.167 0a.208.208 0 10.002.417.208.208 0 00-.002-.417M5.845 13.94a.208.208 0 10.002.416.208.208 0 00-.002-.415m4.165-.001a.208.208 0 10.002.416.208.208 0 00-.001-.415" stroke="#D8DEE0" stroke-width="1.5" stroke-linecap="round" stroke-linejoin="round"></path>
  </symbol>
  <symbol fill="none" xmlns="http://www.w3.org/2000/svg" viewBox="0 0 16 16" id="arrmore">
    <path d="M6.222 11.333l3.555-3.555-3.555-3.556" stroke="#0752E4" stroke-width="2" stroke-linecap="round" stroke-linejoin="round"></path>
    <path d="M6.222 11.333l3.555-3.555-3.555-3.556" stroke="#225FFB" stroke-width="2" stroke-linecap="round" stroke-linejoin="round"></path>
    <path d="M6.222 11.333l3.555-3.555-3.555-3.556" stroke="#0A71EB" stroke-width="2" stroke-linecap="round" stroke-linejoin="round"></path>
  </symbol>
  <symbol fill="none" xmlns="http://www.w3.org/2000/svg" viewBox="0 0 32 32" id="art-f">
    <rect width="32" height="32" rx="16" fill="#4267B2"></rect>
    <path d="M17.068 26.667v-9.731h3.266l.49-3.793h-3.756v-2.42c0-1.099.305-1.847 1.88-1.847l2.008-.001V5.483c-.348-.046-1.54-.15-2.927-.15-2.895 0-4.877 1.768-4.877 5.014v2.796H9.877v3.793h3.275v9.731h3.916z" fill="#fff"></path>
  </symbol>
  <symbol fill="none" xmlns="http://www.w3.org/2000/svg" viewBox="0 0 32 32" id="art-t">
    <rect width="32" height="32" rx="16" fill="#1DA1F2"></rect>
    <path d="M23.835 12.541v.5c0 5.175-3.95 11.15-11.15 11.15-2.225 0-4.275-.65-6.025-1.75.3.025.625.05.925.05a7.933 7.933 0 004.875-1.675 3.88 3.88 0 01-3.65-2.725c.25.05.475.075.75.075.35 0 .7-.05 1.025-.15a3.891 3.891 0 01-3.15-3.825v-.05c.525.3 1.125.475 1.775.5-1.05-.7-1.75-1.9-1.75-3.275 0-.725.2-1.4.525-1.975a11.15 11.15 0 008.075 4.1 3.55 3.55 0 01-.1-.9 3.916 3.916 0 013.925-3.925c1.125 0 2.15.475 2.85 1.225.9-.175 1.725-.5 2.5-.95a4.04 4.04 0 01-1.725 2.175c.8-.1 1.55-.3 2.25-.625-.5.8-1.15 1.5-1.925 2.05z" fill="#fff"></path>
  </symbol>
  <symbol fill="none" xmlns="http://www.w3.org/2000/svg" viewBox="0 0 32 32" id="art-y">
    <rect width="32" height="32" rx="16" fill="red"></rect>
    <path fill-rule="evenodd" clip-rule="evenodd" d="M23.825 9.426a2.507 2.507 0 011.763 1.763c.428 1.565.412 4.827.412 4.827s0 3.246-.412 4.81a2.506 2.506 0 01-1.763 1.763c-1.565.412-7.825.412-7.825.412s-6.244 0-7.825-.428a2.506 2.506 0 01-1.763-1.763C6 19.262 6 16 6 16s0-3.246.412-4.81a2.557 2.557 0 011.763-1.78C9.74 8.998 16 8.998 16 8.998s6.26 0 7.825.428zM19.214 16l-5.206 3v-5.997L19.214 16z" fill="#fff"></path>
  </symbol>
  <symbol fill="none" xmlns="http://www.w3.org/2000/svg" viewBox="0 0 24 24" id="add">
    <path d="M12 8v8m4-4H8" stroke="#fff" stroke-width="2" stroke-linecap="round" stroke-linejoin="round"></path>
    <path clip-rule="evenodd" d="M12 21v0a9 9 0 01-9-9v0a9 9 0 019-9v0a9 9 0 019 9v0a9 9 0 01-9 9z" stroke="#fff" stroke-width="2" stroke-linecap="round" stroke-linejoin="round"></path>
  </symbol>
  <symbol fill="none" xmlns="http://www.w3.org/2000/svg" viewBox="0 0 40 40" id="eyeok">
    <path d="M23.5348 16.4666C25.4865 18.4183 25.4865 21.5866 23.5348 23.5416C21.5832 25.4933 18.4148 25.4933 16.4598 23.5416C14.5082 21.59 14.5082 18.4216 16.4598 16.4666C18.4148 14.5116 21.5815 14.5116 23.5348 16.4666" stroke="#0752E4" stroke-width="2" stroke-linecap="round" stroke-linejoin="round"></path>
    <path d="M23.5348 16.4666C25.4865 18.4183 25.4865 21.5866 23.5348 23.5416C21.5832 25.4933 18.4148 25.4933 16.4598 23.5416C14.5082 21.59 14.5082 18.4216 16.4598 16.4666C18.4148 14.5116 21.5815 14.5116 23.5348 16.4666" stroke="#225FFB" stroke-width="2" stroke-linecap="round" stroke-linejoin="round"></path>
    <path d="M23.5348 16.4666C25.4865 18.4183 25.4865 21.5866 23.5348 23.5416C21.5832 25.4933 18.4148 25.4933 16.4598 23.5416C14.5082 21.59 14.5082 18.4216 16.4598 16.4666C18.4148 14.5116 21.5815 14.5116 23.5348 16.4666" stroke="#0A71EB" stroke-width="2" stroke-linecap="round" stroke-linejoin="round"></path>
    <path d="M35.0013 26.6666L30.0013 31.6666L26.668 28.3333" stroke="#0752E4" stroke-width="2" stroke-linecap="round" stroke-linejoin="round"></path>
    <path d="M35.0013 26.6666L30.0013 31.6666L26.668 28.3333" stroke="#225FFB" stroke-width="2" stroke-linecap="round" stroke-linejoin="round"></path>
    <path d="M35.0013 26.6666L30.0013 31.6666L26.668 28.3333" stroke="#0A71EB" stroke-width="2" stroke-linecap="round" stroke-linejoin="round"></path>
    <path d="M20 31.6667C13.8483 31.6667 8.26833 28.3484 5.74333 23.1867V23.1867C5.25333 22.185 5 21.0984 5 20C5 18.9017 5.25333 17.815 5.74333 16.8134V16.8134C8.26833 11.6517 13.8483 8.33337 20 8.33337C26.1517 8.33337 31.7317 11.6517 34.2567 16.8134V16.8134C34.7467 17.815 35 18.9017 35 20" stroke="#0752E4" stroke-width="2" stroke-linecap="round" stroke-linejoin="round"></path>
    <path d="M20 31.6667C13.8483 31.6667 8.26833 28.3484 5.74333 23.1867V23.1867C5.25333 22.185 5 21.0984 5 20C5 18.9017 5.25333 17.815 5.74333 16.8134V16.8134C8.26833 11.6517 13.8483 8.33337 20 8.33337C26.1517 8.33337 31.7317 11.6517 34.2567 16.8134V16.8134C34.7467 17.815 35 18.9017 35 20" stroke="#225FFB" stroke-width="2" stroke-linecap="round" stroke-linejoin="round"></path>
    <path d="M20 31.6667C13.8483 31.6667 8.26833 28.3484 5.74333 23.1867V23.1867C5.25333 22.185 5 21.0984 5 20C5 18.9017 5.25333 17.815 5.74333 16.8134V16.8134C8.26833 11.6517 13.8483 8.33337 20 8.33337C26.1517 8.33337 31.7317 11.6517 34.2567 16.8134V16.8134C34.7467 17.815 35 18.9017 35 20" stroke="#0A71EB" stroke-width="2" stroke-linecap="round" stroke-linejoin="round"></path>
  </symbol>
  <symbol fill="none" xmlns="http://www.w3.org/2000/svg" viewBox="0 0 40 40" id="cursor">
    <path fill-rule="evenodd" clip-rule="evenodd" d="M25.6961 35.5417L21.7445 22.9183C21.3278 21.5867 22.6911 20.3933 23.9561 20.9833L35.7411 26.485C37.1378 27.1367 36.9028 29.1917 35.3945 29.51L30.5428 30.5367L28.7428 35.5983C28.2245 37.0517 26.1578 37.0117 25.6961 35.5417Z" stroke="#5D4FFC" stroke-width="2" stroke-linecap="round" stroke-linejoin="round"></path>
    <path d="M13.332 23.3333H14.9987" stroke="#5D4FFC" stroke-width="2" stroke-linecap="round" stroke-linejoin="round"></path>
    <path d="M13.332 18.3333H16.6654" stroke="#5D4FFC" stroke-width="2" stroke-linecap="round" stroke-linejoin="round"></path>
    <path d="M13.332 13.3333H23.332" stroke="#5D4FFC" stroke-width="2" stroke-linecap="round" stroke-linejoin="round"></path>
    <path d="M18.3337 32.0266C14.9387 31.9883 11.5621 30.7233 8.96875 28.1316C3.67708 22.84 3.67708 14.2616 8.96875 8.96997C14.2604 3.6783 22.8387 3.6783 28.1304 8.96997C30.7221 11.5616 31.9871 14.94 32.0271 18.335" stroke="#5D4FFC" stroke-width="2" stroke-linecap="round" stroke-linejoin="round"></path>
  </symbol>
  <symbol fill="none" xmlns="http://www.w3.org/2000/svg" viewBox="0 0 24 24" id="arrstat">
    <path d="M14.5 17l-5-5 5-5" stroke="#777D82" stroke-width="2" stroke-linecap="round" stroke-linejoin="round"></path>
  </symbol>
  <symbol fill="none" xmlns="http://www.w3.org/2000/svg" viewBox="0 0 20 20" id="image">
    <path clip-rule="evenodd" d="M16.665 17.5H3.337a1.667 1.667 0 01-1.667-1.667V4.167c0-.921.746-1.667 1.667-1.667h13.328c.92 0 1.667.746 1.667 1.667v11.666c0 .921-.747 1.667-1.667 1.667z" stroke="#fff" stroke-width="1.5" stroke-linecap="round" stroke-linejoin="round"></path>
    <path d="M7.845 6.322a1.667 1.667 0 11-2.357 2.357 1.667 1.667 0 012.357-2.357m10.489 7.011l-3.516-2.812a.834.834 0 00-1.171.13l-2.78 3.475a.834.834 0 01-1.172.13L8.138 13.01a.833.833 0 00-1.16.117L3.333 17.5" stroke="#fff" stroke-width="1.5" stroke-linecap="round" stroke-linejoin="round"></path>
  </symbol>
  <symbol fill="none" xmlns="http://www.w3.org/2000/svg" viewBox="0 0 30 22" id="okpage">
    <path d="M28.4199 1.41997C28.234 1.23251 28.0128 1.08372 27.7691 0.982182C27.5253 0.880645 27.2639 0.828369 26.9999 0.828369C26.7359 0.828369 26.4745 0.880645 26.2307 0.982182C25.987 1.08372 25.7658 1.23251 25.5799 1.41997L10.6799 16.34L4.4199 10.06C4.22686 9.87349 3.99897 9.72686 3.74926 9.62845C3.49955 9.53004 3.23291 9.48178 2.96454 9.48642C2.69618 9.49107 2.43136 9.54852 2.18521 9.65551C1.93905 9.7625 1.71638 9.91692 1.5299 10.11C1.34342 10.303 1.19679 10.5309 1.09839 10.7806C0.999979 11.0303 0.951718 11.297 0.956361 11.5653C0.961003 11.8337 1.01846 12.0985 1.12545 12.3447C1.23243 12.5908 1.38686 12.8135 1.5799 13L9.2599 20.68C9.44583 20.8674 9.66703 21.0162 9.91075 21.1177C10.1545 21.2193 10.4159 21.2716 10.6799 21.2716C10.9439 21.2716 11.2053 21.2193 11.4491 21.1177C11.6928 21.0162 11.914 20.8674 12.0999 20.68L28.4199 4.35997C28.6229 4.17268 28.7849 3.94538 28.8957 3.69238C29.0066 3.43938 29.0638 3.16617 29.0638 2.88997C29.0638 2.61376 29.0066 2.34055 28.8957 2.08755C28.7849 1.83455 28.6229 1.60725 28.4199 1.41997Z" fill="white"></path>
  </symbol>
  <symbol fill="none" xmlns="http://www.w3.org/2000/svg" viewBox="0 0 21 21" id="viber">
    <path d="M15.1287 7.99593C15.0473 7.334 14.8438 6.81426 14.4825 6.3539C14.0134 5.7611 13.4138 5.40613 12.5262 5.19556C11.9477 5.05521 11.714 5.07132 11.5048 5.26243C11.3099 5.44147 11.2719 5.80041 11.4208 6.03285C11.5255 6.20155 11.6463 6.26199 11.9824 6.32795C12.4299 6.41029 12.7391 6.51714 13.0204 6.67799C13.6175 7.02276 13.8956 7.56227 13.9254 8.43571C13.9393 8.84581 13.9747 8.97189 14.1179 9.11735C14.3834 9.38323 14.8559 9.33152 15.0563 9.01334C15.1299 8.89342 15.1411 8.84122 15.1489 8.56274C15.154 8.39034 15.1466 8.13372 15.1287 7.99593Z" fill="white"></path>
    <path d="M17.4671 8.7421C17.3492 6.71416 16.556 5.08258 15.1364 3.93464C14.3366 3.28961 13.3698 2.84607 12.31 2.63037C11.9218 2.55322 11.2071 2.49069 11.0845 2.52646C10.9688 2.55958 10.8051 2.68486 10.7322 2.79816C10.655 2.92102 10.6377 3.19534 10.7035 3.35402C10.8097 3.61928 11.0073 3.71299 11.5606 3.7614C12.4136 3.83603 13.2934 4.13572 13.9582 4.5794C14.7172 5.08457 15.3205 5.77551 15.7108 6.58744C16.048 7.28504 16.2554 8.29038 16.2497 9.19064C16.2477 9.51625 16.298 9.70013 16.429 9.83456C16.6266 10.0413 16.9147 10.0865 17.169 9.94918C17.4508 9.80099 17.5167 9.54085 17.4671 8.7421Z" fill="white"></path>
    <path d="M20.0545 16.552C20.0148 16.4361 19.9223 16.2573 19.8561 16.1546C19.4395 15.5255 17.2013 13.7739 16.0837 13.201C15.4457 12.8732 14.9729 12.764 14.6224 12.8666C14.2455 12.9726 14.0471 13.148 13.4156 13.9328C13.1611 14.2474 12.8999 14.5421 12.8305 14.5884C12.6585 14.7076 12.3213 14.8037 12.0833 14.8037C11.5311 14.8003 10.5293 14.4427 9.75898 13.9725C9.16056 13.6083 8.39357 12.956 7.80503 12.3103C7.1107 11.5521 6.63797 10.8832 6.26433 10.1282C5.78165 9.15806 5.65932 8.56533 5.86097 8.13154C5.91057 8.02229 5.97671 7.90643 6.00642 7.86995C6.0362 7.83689 6.347 7.5819 6.69081 7.30375C7.36531 6.76736 7.4744 6.64484 7.60003 6.27729C7.75872 5.81039 7.71577 5.33358 7.4711 4.85348C7.28263 4.48923 6.79001 3.69454 6.43296 3.18132C5.96017 2.50586 4.78316 1.06217 4.54838 0.866755C4.1252 0.522423 3.58303 0.462784 2.98455 0.694616C2.35312 0.939651 1.16947 1.89327 0.663606 2.55883C0.207348 3.16146 0.0321765 3.58858 0.00569971 4.15149C-0.0174275 4.61504 0.0222323 4.8071 0.266897 5.39982C2.18119 10.0487 5.0377 13.7606 8.9622 16.7076C11.012 18.2473 13.1379 19.4195 15.3432 20.2208C16.6292 20.6877 17.188 20.7108 17.8459 20.3268C18.1236 20.1612 18.8113 19.4559 19.1949 18.9427C19.8297 18.0884 20.0644 17.6943 20.1305 17.3798C20.1768 17.1646 20.1404 16.7904 20.0545 16.552Z" fill="white"></path>
    <path d="M19.8467 9.2078C19.8043 8.06068 19.6112 7.11976 19.2085 6.07072C18.8109 5.03881 18.4085 4.36544 17.6485 3.45467C16.93 2.60072 16.3719 2.11314 15.4869 1.57039C14.252 0.81418 12.7492 0.31375 11.0651 0.10329C10.4908 0.0297363 10.3608 0.0349898 10.1846 0.15256C9.84319 0.375281 9.84775 0.9308 10.1903 1.15018C10.3037 1.21997 10.4043 1.24539 10.8637 1.30553C11.5689 1.40047 12.0224 1.48996 12.5605 1.63677C14.6706 2.21358 16.2932 3.3926 17.378 5.14281C18.2858 6.60162 18.6627 8.06054 18.6092 9.92382C18.5906 10.5537 18.6041 10.6646 18.7004 10.8159C18.8848 11.098 19.3711 11.1538 19.6206 10.9198C19.7758 10.7771 19.8051 10.67 19.8356 10.1309C19.8503 9.8496 19.8534 9.43442 19.8467 9.2078Z" fill="white"></path>
  </symbol>
  <symbol fill="none" xmlns="http://www.w3.org/2000/svg" viewBox="0 0 21 21" id="whatsapp">
    <path fill-rule="evenodd" clip-rule="evenodd" d="M10.0449 19.9296H10.0408C8.37368 19.929 6.73555 19.5108 5.2806 18.7171L0 20.1024L1.41318 14.9405C0.541461 13.4299 0.0827679 11.7162 0.0835154 9.96061C0.0857006 4.46837 4.55431 0 10.0449 0C12.7096 0.00115008 15.2107 1.03853 17.0913 2.92141C18.972 4.8042 20.0072 7.30688 20.0061 9.96847C20.0039 15.4595 15.5371 19.9274 10.0449 19.9296ZM5.52535 16.9138L5.82767 17.0933C7.09886 17.8476 8.556 18.2468 10.0417 18.2473H10.045C14.6084 18.2473 18.3225 14.5331 18.3243 9.96791C18.3252 7.75562 17.4648 5.6755 15.9017 4.11052C14.3385 2.54554 12.2597 1.68327 10.0483 1.6825C5.48141 1.6825 1.76726 5.39632 1.76545 9.9612C1.7648 11.5256 2.20253 13.0492 3.03131 14.3674L3.22816 14.6806L2.39176 17.7358L5.52535 16.9138ZM14.7226 12.1131C14.8962 12.197 15.0134 12.2537 15.0634 12.3372C15.1256 12.441 15.1256 12.9393 14.9183 13.5208C14.7108 14.1022 13.7165 14.6328 13.2383 14.7043C12.8095 14.7684 12.2668 14.7951 11.6706 14.6056C11.3091 14.4909 10.8455 14.3378 10.2517 14.0813C7.9183 13.0738 6.34143 10.8123 6.0434 10.3848C6.02252 10.3549 6.00792 10.334 5.99978 10.3231L5.99777 10.3204C5.86605 10.1447 4.98346 8.96707 4.98346 7.74832C4.98346 6.60183 5.54664 6.0009 5.80587 5.72429C5.82363 5.70534 5.83996 5.68791 5.85459 5.67193C6.08273 5.42275 6.35239 5.36045 6.51831 5.36045C6.68422 5.36045 6.85033 5.36199 6.99535 5.36927C7.01324 5.37017 7.03185 5.37006 7.0511 5.36995C7.19614 5.3691 7.37697 5.36804 7.55535 5.79653C7.62398 5.96143 7.7244 6.20591 7.83031 6.46376C8.04449 6.98517 8.28112 7.56125 8.32275 7.64462C8.38499 7.76921 8.42646 7.91451 8.3435 8.08069C8.33104 8.10561 8.31952 8.12913 8.30852 8.1516C8.24621 8.27881 8.20037 8.37239 8.09461 8.49588C8.05302 8.54443 8.01004 8.59678 7.96706 8.64912C7.88143 8.7534 7.79581 8.85767 7.72125 8.93195C7.59665 9.05606 7.46694 9.19072 7.61213 9.4399C7.75732 9.68909 8.25684 10.5041 8.99677 11.1641C9.79215 11.8736 10.4834 12.1734 10.8338 12.3254C10.9023 12.3551 10.9577 12.3791 10.9984 12.3995C11.2472 12.5241 11.3924 12.5033 11.5376 12.3372C11.6828 12.1711 12.1598 11.6104 12.3257 11.3613C12.4916 11.1122 12.6576 11.1537 12.8857 11.2367C13.1139 11.3198 14.3375 11.9219 14.5864 12.0465C14.635 12.0708 14.6805 12.0928 14.7226 12.1131Z" fill="#FDFDFD"></path>
  </symbol>
  <symbol fill="none" xmlns="http://www.w3.org/2000/svg" viewBox="0 0 19 16" id="telegram">
    <path d="M0.286966 7.44246C2.23072 6.35383 4.40048 5.4452 6.42779 4.53196C9.91555 3.03613 13.4172 1.56623 16.9541 0.197773C17.6423 -0.0353846 18.8788 -0.263372 19 0.773533C18.9336 2.24132 18.6605 3.70051 18.4732 5.15971C17.9977 8.36861 17.4482 11.5665 16.9123 14.7649C16.7276 15.8302 15.4151 16.3817 14.5753 15.6999C12.557 14.3138 10.5231 12.941 8.5306 11.5227C7.8779 10.8483 8.48316 9.87991 9.06608 9.39835C10.7284 7.73262 12.4913 6.31738 14.0668 4.56556C14.4918 3.52212 13.2361 4.40149 12.8219 4.67097C10.5462 6.26555 8.32613 7.9575 5.92677 9.35893C4.70119 10.0449 3.27274 9.45869 2.04771 9.07592C0.949337 8.61351 -0.660221 8.14763 0.286855 7.44259L0.286966 7.44246Z" fill="white"></path>
  </symbol>
  <symbol fill="none" xmlns="http://www.w3.org/2000/svg" viewBox="0 0 24 24" id="phone">
    <path d="M19.6413 16.6552L17.1704 14.1784C16.6782 13.6871 15.8632 13.702 15.3538 14.2127L14.109 15.4601C14.0303 15.4167 13.9489 15.3713 13.8633 15.3231C13.0772 14.8866 12.0012 14.2882 10.869 13.1526C9.73347 12.0146 9.1359 10.9345 8.69898 10.1461C8.65288 10.0626 8.6087 9.98207 8.56508 9.90559L9.40057 9.06945L9.81133 8.65725C10.3214 8.14586 10.3355 7.32921 9.84448 6.83648L7.37353 4.35937C6.88251 3.86733 6.0671 3.88226 5.55701 4.39365L4.86061 5.09563L4.87964 5.11457C4.64613 5.4132 4.451 5.75763 4.30579 6.12905C4.17193 6.4826 4.08859 6.81998 4.05049 7.15805C3.72421 9.86906 4.96026 12.3467 8.31474 15.7088C12.9517 20.3559 16.6884 20.0049 16.8496 19.9877C17.2007 19.9457 17.5372 19.8616 17.8791 19.7285C18.2465 19.5847 18.5899 19.3894 18.8877 19.1558L18.9029 19.1694L19.6084 18.477C20.1174 17.9657 20.1321 17.1487 19.6413 16.6552Z" fill="#0752E4"></path>
    <path d="M19.6413 16.6552L17.1704 14.1784C16.6782 13.6871 15.8632 13.702 15.3538 14.2127L14.109 15.4601C14.0303 15.4167 13.9489 15.3713 13.8633 15.3231C13.0772 14.8866 12.0012 14.2882 10.869 13.1526C9.73347 12.0146 9.1359 10.9345 8.69898 10.1461C8.65288 10.0626 8.6087 9.98207 8.56508 9.90559L9.40057 9.06945L9.81133 8.65725C10.3214 8.14586 10.3355 7.32921 9.84448 6.83648L7.37353 4.35937C6.88251 3.86733 6.0671 3.88226 5.55701 4.39365L4.86061 5.09563L4.87964 5.11457C4.64613 5.4132 4.451 5.75763 4.30579 6.12905C4.17193 6.4826 4.08859 6.81998 4.05049 7.15805C3.72421 9.86906 4.96026 12.3467 8.31474 15.7088C12.9517 20.3559 16.6884 20.0049 16.8496 19.9877C17.2007 19.9457 17.5372 19.8616 17.8791 19.7285C18.2465 19.5847 18.5899 19.3894 18.8877 19.1558L18.9029 19.1694L19.6084 18.477C20.1174 17.9657 20.1321 17.1487 19.6413 16.6552Z" fill="#225FFB"></path>
    <path d="M19.6413 16.6552L17.1704 14.1784C16.6782 13.6871 15.8632 13.702 15.3538 14.2127L14.109 15.4601C14.0303 15.4167 13.9489 15.3713 13.8633 15.3231C13.0772 14.8866 12.0012 14.2882 10.869 13.1526C9.73347 12.0146 9.1359 10.9345 8.69898 10.1461C8.65288 10.0626 8.6087 9.98207 8.56508 9.90559L9.40057 9.06945L9.81133 8.65725C10.3214 8.14586 10.3355 7.32921 9.84448 6.83648L7.37353 4.35937C6.88251 3.86733 6.0671 3.88226 5.55701 4.39365L4.86061 5.09563L4.87964 5.11457C4.64613 5.4132 4.451 5.75763 4.30579 6.12905C4.17193 6.4826 4.08859 6.81998 4.05049 7.15805C3.72421 9.86906 4.96026 12.3467 8.31474 15.7088C12.9517 20.3559 16.6884 20.0049 16.8496 19.9877C17.2007 19.9457 17.5372 19.8616 17.8791 19.7285C18.2465 19.5847 18.5899 19.3894 18.8877 19.1558L18.9029 19.1694L19.6084 18.477C20.1174 17.9657 20.1321 17.1487 19.6413 16.6552Z" fill="#0A71EB"></path>
  </symbol>
  <symbol fill="none" xmlns="http://www.w3.org/2000/svg" viewBox="0 0 24 24" id="wphone">
    <path d="M19.6413 16.6552L17.1704 14.1784C16.6782 13.6871 15.8632 13.702 15.3538 14.2127L14.109 15.4601C14.0303 15.4167 13.9489 15.3713 13.8633 15.3231C13.0772 14.8866 12.0012 14.2882 10.869 13.1526C9.73347 12.0146 9.1359 10.9345 8.69898 10.1461C8.65288 10.0626 8.6087 9.98207 8.56508 9.90559L9.40057 9.06945L9.81133 8.65725C10.3214 8.14586 10.3355 7.32921 9.84448 6.83648L7.37353 4.35937C6.88251 3.86733 6.0671 3.88226 5.55701 4.39365L4.86061 5.09563L4.87964 5.11457C4.64613 5.4132 4.451 5.75763 4.30579 6.12905C4.17193 6.4826 4.08859 6.81998 4.05049 7.15805C3.72421 9.86906 4.96026 12.3467 8.31474 15.7088C12.9517 20.3559 16.6884 20.0049 16.8496 19.9877C17.2007 19.9457 17.5372 19.8616 17.8791 19.7285C18.2465 19.5847 18.5899 19.3894 18.8877 19.1558L18.9029 19.1694L19.6084 18.477C20.1174 17.9657 20.1321 17.1487 19.6413 16.6552Z" fill="#fff"></path>
    <path d="M19.6413 16.6552L17.1704 14.1784C16.6782 13.6871 15.8632 13.702 15.3538 14.2127L14.109 15.4601C14.0303 15.4167 13.9489 15.3713 13.8633 15.3231C13.0772 14.8866 12.0012 14.2882 10.869 13.1526C9.73347 12.0146 9.1359 10.9345 8.69898 10.1461C8.65288 10.0626 8.6087 9.98207 8.56508 9.90559L9.40057 9.06945L9.81133 8.65725C10.3214 8.14586 10.3355 7.32921 9.84448 6.83648L7.37353 4.35937C6.88251 3.86733 6.0671 3.88226 5.55701 4.39365L4.86061 5.09563L4.87964 5.11457C4.64613 5.4132 4.451 5.75763 4.30579 6.12905C4.17193 6.4826 4.08859 6.81998 4.05049 7.15805C3.72421 9.86906 4.96026 12.3467 8.31474 15.7088C12.9517 20.3559 16.6884 20.0049 16.8496 19.9877C17.2007 19.9457 17.5372 19.8616 17.8791 19.7285C18.2465 19.5847 18.5899 19.3894 18.8877 19.1558L18.9029 19.1694L19.6084 18.477C20.1174 17.9657 20.1321 17.1487 19.6413 16.6552Z" fill="#fff"></path>
    <path d="M19.6413 16.6552L17.1704 14.1784C16.6782 13.6871 15.8632 13.702 15.3538 14.2127L14.109 15.4601C14.0303 15.4167 13.9489 15.3713 13.8633 15.3231C13.0772 14.8866 12.0012 14.2882 10.869 13.1526C9.73347 12.0146 9.1359 10.9345 8.69898 10.1461C8.65288 10.0626 8.6087 9.98207 8.56508 9.90559L9.40057 9.06945L9.81133 8.65725C10.3214 8.14586 10.3355 7.32921 9.84448 6.83648L7.37353 4.35937C6.88251 3.86733 6.0671 3.88226 5.55701 4.39365L4.86061 5.09563L4.87964 5.11457C4.64613 5.4132 4.451 5.75763 4.30579 6.12905C4.17193 6.4826 4.08859 6.81998 4.05049 7.15805C3.72421 9.86906 4.96026 12.3467 8.31474 15.7088C12.9517 20.3559 16.6884 20.0049 16.8496 19.9877C17.2007 19.9457 17.5372 19.8616 17.8791 19.7285C18.2465 19.5847 18.5899 19.3894 18.8877 19.1558L18.9029 19.1694L19.6084 18.477C20.1174 17.9657 20.1321 17.1487 19.6413 16.6552Z" fill="#fff"></path>
  </symbol>
  <symbol fill="none" xmlns="http://www.w3.org/2000/svg" viewBox="0 0 21 12" id="redline">
    <g clip-path="url(#clip0)">
      <path d="M0 0.0694939C1.81065 0.0694939 3.56906 0.0660447 5.32747 0.0706437C6.19659 0.0729432 7.16306 -0.137462 7.90869 0.161474C8.65432 0.460411 9.18861 1.26754 9.7977 1.86886C10.0162 2.08502 10.1824 2.35061 10.4317 2.66909C11.2997 1.80907 12.0215 1.07898 12.766 0.37188C12.9191 0.225861 13.1602 0.083291 13.362 0.0809915C15.8352 0.0625954 18.3096 0.0706437 20.7839 0.074093C20.8409 0.074093 20.8967 0.0970881 21 0.118933C21 2.88295 21 5.64926 21 8.48226C20.8041 8.4903 20.5951 8.5064 20.3862 8.50755C18.4865 8.50985 16.5856 8.49261 14.6871 8.52595C14.3748 8.5317 13.9949 8.68116 13.7693 8.88927C12.6793 9.89186 11.6321 10.9381 10.5386 11.9994C10.4151 11.9005 10.2904 11.8177 10.1848 11.7154C9.34296 10.9036 8.46554 10.1241 7.67954 9.26409C7.131 8.66392 6.53734 8.46271 5.72166 8.49146C4.02143 8.55124 2.31882 8.50985 0.616215 8.50985C0.422683 8.50985 0.229151 8.50985 0 8.50985C0 5.6872 0 2.91744 0 0.0694939ZM10.4875 3.43598C9.62436 2.58861 8.83361 1.78378 8.00249 1.02034C7.80064 0.835231 7.46345 0.69956 7.1868 0.696111C5.20874 0.668517 3.23068 0.680014 1.25261 0.683464C1.06027 0.683464 0.867926 0.703009 0.648273 0.715657C0.648273 3.11635 0.648273 5.4768 0.648273 7.90163C0.90592 7.90163 1.11964 7.90163 1.33216 7.90163C3.11195 7.90163 4.89292 7.88783 6.6727 7.91658C6.94934 7.92118 7.28891 8.0557 7.48838 8.24196C8.49285 9.18476 9.4617 10.1643 10.4958 11.1842C11.5431 10.1586 12.5143 9.18361 13.5223 8.24426C13.723 8.058 14.0613 7.92003 14.338 7.91543C16.138 7.88668 17.9379 7.90163 19.7379 7.90163C19.9469 7.90163 20.1558 7.90163 20.36 7.90163C20.36 5.4515 20.36 3.08875 20.36 0.683464C18.0578 0.683464 15.8055 0.676565 13.5532 0.697261C13.3715 0.69841 13.1614 0.857077 13.0165 0.995047C12.1842 1.78148 11.3673 2.58286 10.4875 3.43598Z" fill="#960000"></path>
      <path d="M1.30225 7.22725C1.30225 5.26232 1.30225 3.33533 1.30225 1.3244C1.65844 1.3244 2.00632 1.3244 2.35421 1.3244C3.87753 1.3244 5.40204 1.30716 6.92417 1.3382C7.202 1.34395 7.54039 1.47617 7.73986 1.66128C8.66596 2.519 9.55407 3.41581 10.5075 4.35056C11.4371 3.4388 12.3336 2.57994 13.2027 1.69347C13.4864 1.40374 13.7809 1.30256 14.1893 1.30716C16.0083 1.32785 17.8285 1.31635 19.6985 1.31635C19.6985 3.28244 19.6985 5.22437 19.6985 7.25599C19.5097 7.25599 19.3007 7.25599 19.0929 7.25599C17.4307 7.25599 15.7685 7.23875 14.1074 7.27209C13.8141 7.27784 13.4603 7.42845 13.2442 7.62506C12.3253 8.46439 11.4478 9.34625 10.5051 10.2615C9.59088 9.37384 8.69089 8.51957 7.81822 7.64001C7.53445 7.35372 7.24237 7.24219 6.83275 7.24679C5.19069 7.26864 3.54864 7.25714 1.90659 7.25484C1.71424 7.25369 1.5219 7.2376 1.30225 7.22725Z" fill="#960000"></path>
    </g>
    <defs>
      <clipPath id="clip0">
        <rect width="21" height="12" fill="white"></rect>
      </clipPath>
    </defs>
  </symbol>
  <symbol fill="none" xmlns="http://www.w3.org/2000/svg" viewBox="0 0 20 19" id="convers">
    <path fill-rule="evenodd" clip-rule="evenodd" d="M10 15H16C17.657 15 19 13.657 19 12V4C19 2.343 17.657 1 16 1H4C2.343 1 1 2.343 1 4V12C1 13.657 2.343 15 4 15H5.5V18L10 15Z" stroke="#0752E4" stroke-width="1.5" stroke-linecap="round" stroke-linejoin="round"></path>
    <path fill-rule="evenodd" clip-rule="evenodd" d="M10 15H16C17.657 15 19 13.657 19 12V4C19 2.343 17.657 1 16 1H4C2.343 1 1 2.343 1 4V12C1 13.657 2.343 15 4 15H5.5V18L10 15Z" stroke="#225FFB" stroke-width="1.5" stroke-linecap="round" stroke-linejoin="round"></path>
    <path fill-rule="evenodd" clip-rule="evenodd" d="M10 15H16C17.657 15 19 13.657 19 12V4C19 2.343 17.657 1 16 1H4C2.343 1 1 2.343 1 4V12C1 13.657 2.343 15 4 15H5.5V18L10 15Z" stroke="#0A71EB" stroke-width="1.5" stroke-linecap="round" stroke-linejoin="round"></path>
  </symbol>
  <symbol fill="none" xmlns="http://www.w3.org/2000/svg" viewBox="0 0 24 24" id="credit">
    <path d="M3 9H21" stroke="#777D82" stroke-width="1.5" stroke-linecap="round" stroke-linejoin="round"></path>
    <path d="M9.57 13H7" stroke="#777D82" stroke-width="1.5" stroke-linecap="round" stroke-linejoin="round"></path>
    <path fill-rule="evenodd" clip-rule="evenodd" d="M18 19H6C4.343 19 3 17.657 3 16V8C3 6.343 4.343 5 6 5H18C19.657 5 21 6.343 21 8V16C21 17.657 19.657 19 18 19Z" stroke="#777D82" stroke-width="1.5" stroke-linecap="round" stroke-linejoin="round"></path>
  </symbol>
  <symbol fill="none" xmlns="http://www.w3.org/2000/svg" viewBox="0 0 24 24" id="nal">
    <path fill-rule="evenodd" clip-rule="evenodd" d="M20 15.5H18C16.895 15.5 16 14.605 16 13.5V13.5C16 12.395 16.895 11.5 18 11.5H20C20.552 11.5 21 11.948 21 12.5V14.5C21 15.052 20.552 15.5 20 15.5Z" stroke="#777D82" stroke-width="1.5" stroke-linecap="round" stroke-linejoin="round"></path>
    <path d="M20 11.5V8.5C20 7.395 19.105 6.5 18 6.5H4.5C3.672 6.5 3 5.828 3 5V5C3 4.172 3.672 3.5 4.5 3.5H17" stroke="#777D82" stroke-width="1.5" stroke-linecap="round" stroke-linejoin="round"></path>
    <path d="M20 15.5V18.5C20 19.605 19.105 20.5 18 20.5H5C3.895 20.5 3 19.605 3 18.5V5" stroke="#777D82" stroke-width="1.5" stroke-linecap="round" stroke-linejoin="round"></path>
  </symbol>
  <symbol fill="none" xmlns="http://www.w3.org/2000/svg" viewBox="0 0 24 24" id="bill">
    <path d="M17 20H7V7H17V20" stroke="#777D82" stroke-width="1.5" stroke-linecap="round" stroke-linejoin="round"></path>
    <path d="M10 10H14" stroke="#777D82" stroke-width="1.5" stroke-linecap="round" stroke-linejoin="round"></path>
    <path d="M14 13H10" stroke="#777D82" stroke-width="1.5" stroke-linecap="round" stroke-linejoin="round"></path>
    <path d="M10 16H13" stroke="#777D82" stroke-width="1.5" stroke-linecap="round" stroke-linejoin="round"></path>
    <path d="M17 11H19C20.105 11 21 10.105 21 9V5C21 3.895 20.105 3 19 3H5C3.895 3 3 3.895 3 5V9C3 10.105 3.895 11 5 11H7" stroke="#777D82" stroke-width="1.5" stroke-linecap="round" stroke-linejoin="round"></path>
  </symbol>
  <symbol fill="none" xmlns="http://www.w3.org/2000/svg" viewBox="0 0 18 11" id="vk">
    <path fill-rule="evenodd" clip-rule="evenodd" d="M17.587 0.744816C17.7122 0.315527 17.587 0 16.9915 0H15.0223C14.5215 0 14.2908 0.272539 14.1657 0.573158C14.1657 0.573158 13.1642 3.08478 11.7455 4.71625C11.2865 5.18853 11.0779 5.33862 10.8276 5.33862C10.7024 5.33862 10.5212 5.18853 10.5212 4.75924V0.744816C10.5212 0.229553 10.3759 0 9.95858 0H6.8641C6.55128 0 6.36308 0.239106 6.36308 0.465763C6.36308 0.95425 7.07228 1.06686 7.14542 2.4407V5.42474C7.14542 6.07895 7.03064 6.19763 6.78027 6.19763C6.11271 6.19763 4.48895 3.67458 3.52573 0.787803C3.33697 0.226658 3.14764 0 2.64437 0H0.675158C0.112526 0 0 0.272539 0 0.573158C0 1.10984 0.667702 3.77184 3.10854 7.29242C4.73595 9.6965 7.02839 11 9.11463 11C10.3665 11 10.5212 10.7105 10.5212 10.2119V8.39474C10.5212 7.81579 10.6398 7.70029 11.036 7.70029C11.3283 7.70029 11.8289 7.85053 12.9973 9.00972C14.3325 10.3834 14.5525 11 15.3036 11H17.2728C17.8354 11 18.1167 10.7105 17.9544 10.1392C17.7769 9.56985 17.1394 8.74399 16.2935 7.7647C15.8346 7.20645 15.146 6.60535 14.9376 6.30488C14.6454 5.91843 14.7288 5.74678 14.9376 5.40346C14.9376 5.40346 17.3366 1.92572 17.587 0.744961V0.744816Z" fill="white"></path>
  </symbol>
  <symbol fill="none" xmlns="http://www.w3.org/2000/svg" viewBox="0 0 10 19" id="fb">
    <path d="M6.4908 18.9999V10.3331H9.43911L9.88051 6.95549H6.4908V4.79899C6.4908 3.82112 6.76604 3.15465 8.18733 3.15465L10 3.15382V0.132946C9.68636 0.0919337 8.61042 0 7.35864 0C4.74517 0 2.95593 1.57397 2.95593 4.46466V6.95558H0V10.3332H2.95584V19L6.4908 18.9999Z" fill="white"></path>
  </symbol>
  <symbol fill="none" xmlns="http://www.w3.org/2000/svg" viewBox="0 0 16 16" id="copy">
    <path d="M6.66699 8.66709L7.30259 9.30269C7.8029 9.80303 8.48148 10.0841 9.18904 10.0841C9.8966 10.0841 10.5752 9.80303 11.0755 9.30269L13.097 7.28118C14.3056 6.07243 14.3056 4.11278 13.097 2.90403V2.90403C11.8882 1.6954 9.9286 1.6954 8.71985 2.90403L8.12827 3.49627" stroke="white" stroke-width="1.5" stroke-linecap="round" stroke-linejoin="round"></path>
    <path d="M9.33452 6.66604L8.69893 6.03045C8.19862 5.53011 7.52004 5.24902 6.81247 5.24902C6.10491 5.24902 5.42633 5.53011 4.92602 6.03045L2.90451 8.05195C1.69589 9.26071 1.69589 11.2204 2.90451 12.4291V12.4291C4.11327 13.6377 6.07291 13.6377 7.28167 12.4291L7.87325 11.8369" stroke="white" stroke-width="1.5" stroke-linecap="round" stroke-linejoin="round"></path>
  </symbol>
  <symbol fill="none" xmlns="http://www.w3.org/2000/svg" viewBox="0 0 11 18" id="ok">
    <path d="M5.49987 2.72259C6.61895 2.72259 7.52923 3.58535 7.52923 4.64602C7.52923 5.70579 6.61871 6.56855 5.49987 6.56855C4.38149 6.56855 3.47097 5.70579 3.47097 4.64602C3.47074 3.58513 4.38172 2.72259 5.49987 2.72259ZM5.49987 9.28981C8.20302 9.28981 10.4013 7.20695 10.4013 4.64602C10.4013 2.08375 8.20325 0 5.49987 0C2.79694 0 0.598431 2.08397 0.598431 4.64602C0.598431 7.20695 2.79694 9.28981 5.49987 9.28981ZM7.48277 13.0791C8.49108 12.8614 9.45331 12.4838 10.3288 11.9621C10.6511 11.77 10.8797 11.4643 10.9642 11.1124C11.0487 10.7605 10.9823 10.3911 10.7795 10.0856C10.6792 9.93423 10.5484 9.80304 10.3946 9.69958C10.2408 9.59612 10.0669 9.52242 9.88302 9.48268C9.69911 9.44295 9.50875 9.43796 9.32281 9.46801C9.13687 9.49807 8.95901 9.56256 8.7994 9.65782C6.79138 10.8543 4.20694 10.8535 2.20057 9.65782C2.04098 9.56254 1.86314 9.49802 1.67721 9.46796C1.49129 9.43789 1.30093 9.44287 1.11704 9.48261C0.933147 9.52235 0.759326 9.59606 0.605524 9.69954C0.451721 9.80301 0.320957 9.93422 0.220712 10.0856C0.0178713 10.391 -0.0486739 10.7603 0.0357111 11.1122C0.120096 11.4641 0.348501 11.7698 0.67069 11.9621C1.54612 12.4836 2.50816 12.8612 3.51625 13.0791L0.776264 15.6765C0.506998 15.9318 0.355764 16.278 0.35583 16.639C0.355896 17 0.507257 17.3461 0.776616 17.6013C1.04597 17.8566 1.41127 17.9999 1.79213 17.9998C2.173 17.9998 2.53824 17.8563 2.8075 17.601L5.4994 15.0492L8.19293 17.6012C8.32611 17.7276 8.48428 17.8279 8.65839 17.8964C8.8325 17.9648 9.01913 18 9.20761 18C9.3961 18 9.58273 17.9648 9.75684 17.8964C9.93095 17.8279 10.0891 17.7276 10.2223 17.6012C10.3559 17.475 10.4618 17.3251 10.5342 17.16C10.6065 16.9949 10.6437 16.8178 10.6437 16.6391C10.6437 16.4603 10.6065 16.2833 10.5342 16.1182C10.4618 15.9531 10.3559 15.8031 10.2223 15.6769L7.48277 13.0791Z" fill="white"></path>
  </symbol>
  <symbol fill="none" xmlns="http://www.w3.org/2000/svg" viewBox="0 0 19 15" id="tw">
    <path d="M17.0851 3.74396C17.0851 3.91304 17.0851 4.08213 17.0851 4.22705C17.0851 9.22705 13.1558 15 5.99346 15C3.7801 15 1.74084 14.372 0 13.3092C0.298429 13.3333 0.621728 13.3575 0.920157 13.3575C2.7356 13.3575 4.4267 12.7536 5.76963 11.7391C4.05366 11.715 2.61126 10.6039 2.13874 9.10628C2.38743 9.15459 2.61126 9.17874 2.88482 9.17874C3.23298 9.17874 3.58115 9.13043 3.90445 9.03382C2.11387 8.69565 0.770942 7.17391 0.770942 5.33816C0.770942 5.31401 0.770942 5.31401 0.770942 5.28986C1.29319 5.57971 1.89005 5.74879 2.53665 5.77295C1.49215 5.09662 0.795812 3.9372 0.795812 2.6087C0.795812 1.90821 0.994764 1.25604 1.31806 0.700483C3.23298 2.99517 6.1178 4.49275 9.35079 4.66184C9.27618 4.39614 9.25131 4.08213 9.25131 3.79227C9.25131 1.69082 10.9921 0 13.1558 0C14.2749 0 15.2945 0.458937 15.9908 1.18357C16.8861 1.01449 17.7068 0.700483 18.4777 0.2657C18.1793 1.15942 17.5576 1.88406 16.7618 2.36715C17.5576 2.27053 18.3037 2.07729 19 1.76329C18.5026 2.53623 17.856 3.21256 17.0851 3.74396Z" fill="white"></path>
  </symbol>
  <symbol fill="none" xmlns="http://www.w3.org/2000/svg" viewBox="0 0 24 24" id="pause">
    <path d="M14 15V9" stroke="#777D82" stroke-width="1.5" stroke-linecap="round" stroke-linejoin="round"></path>
    <path d="M10 15V9" stroke="#777D82" stroke-width="1.5" stroke-linecap="round" stroke-linejoin="round"></path>
    <path fill-rule="evenodd" clip-rule="evenodd" d="M21 12V12C21 16.971 16.971 21 12 21V21C7.029 21 3 16.971 3 12V12C3 7.029 7.029 3 12 3V3C16.971 3 21 7.029 21 12Z" stroke="#777D82" stroke-width="1.5" stroke-linecap="round" stroke-linejoin="round"></path>
  </symbol>
  <symbol fill="none" xmlns="http://www.w3.org/2000/svg" viewBox="0 0 24 24" id="crossw">
    <path d="M8 8L16 16" stroke="#F1F3F4" stroke-width="1.5" stroke-linecap="round" stroke-linejoin="round"></path>
    <path d="M16 8L8 16" stroke="#F1F3F4" stroke-width="1.5" stroke-linecap="round" stroke-linejoin="round"></path>
  </symbol>
  <symbol fill="none" xmlns="http://www.w3.org/2000/svg" viewBox="0 0 512 512" id="play">
	<path fill="currentColor" d="M371.7 238l-176-107c-15.8-8.8-35.7 2.5-35.7 21v208c0 18.4 19.8 29.8 35.7 21l176-101c16.4-9.1 16.4-32.8 0-42zM504 256C504 119 393 8 256 8S8 119 8 256s111 248 248 248 248-111 248-248zm-448 0c0-110.5 89.5-200 200-200s200 89.5 200 200-89.5 200-200 200S56 366.5 56 256z"></path>
  </symbol>
</svg>