<svg xmlns="http://www.w3.org/2000/svg" viewBox="-5 -5 103 99">
    <path d="M76 89H61.09a3.72 3.72 0 0 1-3.06-1.38q-7.66-8.56-15.36-17.11-8.58-9.51-17.2-19c-1.34-1.48-2.72-2.94-4.07-4.42s-1.22-1.6-.06-2.93C27.68 37 34.09 29.85 40.49 22.72c5.07-5.63 10-11.36 15-17 1.38-1.57 2.81-3.09 4.2-4.65A2.86 2.86 0 0 1 62 0h30.25c.42 0 1-.14 1.16.36s-.26.8-.54 1.12q-7.75 8.83-15.53 17.66-5.82 6.65-11.65 13.26c-3.51 4-7 8-10.54 12-.74.83-.94 1.5-.06 2.44q8.6 9.16 17.13 18.47c6.73 7.3 13.41 14.64 20 22.1.31.35.86.7.69 1.18s-.9.39-1.4.39H76z"
          fill="#006de5"/>
    <path d="M.05 27.35V2.11C.05.31.11.25 1.87.25H48c.87 0 1 .44.44 1.07-1.06 1.25-2.18 2.47-3.28 3.68q-7.94 8.84-15.88 17.67c-3.77 4.19-7.59 8.33-11.36 12.47-4.4 4.86-8.77 9.78-13.16 14.67-1 1.17-2.1 2.33-3.18 3.47-.34.36-.66 1-1.2.85s-.32-.93-.32-1.42Q0 40 .05 27.35zM24.11 88.72h-22c-1.86 0-2.06-.18-2.06-2V69.2a3.77 3.77 0 0 1 1.2-2.78c2.83-2.95 5.58-6 8.65-8.71 1.49-1.32 2.75-2.9 4.16-4.33 1.08-1.09 1.57-1.11 2.6 0 3.88 4.23 7.72 8.51 11.57 12.77 2.08 2.29 4.17 4.56 6.26 6.84 3.47 3.78 6.93 7.58 10.25 11.49.82 1 1.71 1.86 2.54 2.81.25.28.65.59.46 1s-.74.37-1.16.37H24.11z"
          fill="#0b71eb"/>
</svg>