<?xml version="1.0" standalone="no"?>
<!DOCTYPE svg PUBLIC "-//W3C//DTD SVG 20010904//EN" "http://www.w3.org/TR/2001/REC-SVG-20010904/DTD/svg10.dtd">
<svg version="1.0" xmlns="http://www.w3.org/2000/svg"
 width="1080pt" height="1080pt" viewBox="0 0 1080 1080"
 preserveAspectRatio="xMidYMid meet">

<g transform="translate(0.000000,135.000000) scale(0.100000,-0.100000)"
fill="#4975F3" stroke="none">
<path d="M525 1340 c-104 -21 -235 -93 -318 -174 -74 -73 -121 -144 -156 -236
-98 -255 -46 -518 139 -714 47 -50 49 -54 38 -83 -10 -26 -9 -35 5 -57 17 -25
22 -26 102 -26 105 0 115 10 115 117 0 60 -4 77 -20 93 -23 23 -51 26 -81 7
-19 -11 -26 -6 -75 46 -200 214 -192 548 18 754 70 68 152 117 236 139 82 21
102 37 102 80 0 27 -6 36 -30 49 -16 8 -30 15 -32 14 -2 -1 -21 -5 -43 -9z"/>
<path d="M964 1262 c-23 -15 -34 -53 -34 -116 0 -53 4 -70 20 -86 24 -24 57
-26 87 -5 21 15 24 13 63 -36 72 -92 108 -182 117 -301 8 -98 -9 -182 -55
-278 -65 -138 -216 -257 -368 -291 -85 -19 -111 -78 -53 -121 25 -19 29 -19
90 -4 35 9 102 35 149 57 69 34 101 58 170 128 123 124 184 259 197 437 11
143 -56 348 -152 459 -43 51 -44 53 -33 89 11 35 10 39 -13 57 -18 14 -41 19
-99 19 -41 0 -80 -4 -86 -8z"/>
<path d="M465 985 c-99 -75 -186 -143 -192 -152 -17 -22 -16 -63 2 -87 15 -20
57 -25 88 -12 16 8 17 -4 17 -161 0 -142 3 -172 17 -193 34 -49 35 -49 275
-50 l228 0 32 29 33 29 3 176 c2 97 5 176 8 176 2 0 13 -5 23 -12 14 -9 26 -8
50 2 35 14 49 49 35 86 -8 19 -321 266 -375 295 -39 21 -67 6 -244 -126z m308
-58 c43 -33 76 -65 74 -71 -4 -13 -336 -21 -348 -9 -12 12 -2 22 89 91 46 34
89 59 95 55 7 -3 47 -33 90 -66z m-153 -167 c18 -18 20 -33 20 -168 0 -163 -3
-173 -62 -187 -21 -5 -33 -1 -52 19 -26 26 -33 50 -17 60 5 3 16 -5 25 -19 19
-28 60 -34 70 -9 3 9 6 76 6 149 0 114 -2 135 -16 143 -25 14 -53 3 -60 -24
-7 -28 -34 -32 -34 -6 0 53 81 81 120 42z m209 -6 c19 -24 21 -40 21 -164 0
-150 -7 -173 -60 -185 -31 -7 -80 27 -80 56 0 25 26 25 33 -1 7 -27 53 -27 67
-1 5 11 10 74 10 140 0 108 -2 123 -20 141 -16 16 -25 18 -40 10 -11 -6 -20
-20 -20 -30 0 -11 -7 -20 -15 -20 -23 0 -18 47 7 64 34 24 73 20 97 -10z"/>
<path d="M611 917 l-55 -42 63 -3 c34 -2 87 -2 117 0 l55 3 -51 38 c-28 21
-56 40 -63 42 -7 2 -36 -15 -66 -38z"/>
</g>
</svg>
