<svg xmlns="http://www.w3.org/2000/svg" xmlns:xlink="http://www.w3.org/1999/xlink" width="400" height="400"
     viewBox="0 0 400 400">
    <rect data-name="background" width="100%" height="100%" fill="#ffffff"></rect>
    <g data-name="watermark" class="watermark-logodesign" stroke="#ffffff"
       transform="translate(10, 320) scale(1.5) rotate(-45)" style="opacity:0.040000010281801224;">
        <path fill="#000000"
              d="M22.92,19.2q3.04,1.68,4.8,4.7t1.76,6.78t-1.76,6.78t-4.8,4.7t-6.68,1.68t-6.7-1.68t-4.84-4.7t-1.78-6.78t1.78-6.78t4.84-4.7t6.7-1.68t6.68,1.68z M11.14,21.74q-2.26,1.3-3.54,3.62t-1.28,5.32t1.28,5.32t3.54,3.6t5.1,1.28t5.08-1.28t3.52-3.6t1.28-5.32t-1.28-5.32t-3.54-3.62t-5.06-1.3q-2.84,0-5.1,1.3z M21.4,24.76l-1.8,2.32q-0.72-0.56-1.4-0.78t-1.48-0.22q-1.44,0-2.3,1.1t-0.86,3.46q0,2.32,0.82,3.44t2.26,1.12q0.96,0,1.74-0.3t1.54-0.9l1.64,2.44q-2.24,2.04-5.2,2.04q-3.2,0-5.08-2.04t-1.88-5.8q0-2.4,0.9-4.16t2.48-2.7t3.54-0.94q2.92,0,5.08,1.92z M41.2,20.32l0,22.96l10.96,0l-0.64,4.72l-16.2,0l0-27.68l5.88,0z M71.92,29.14q2.68,2.98,2.68,8.26q0,3.36-1.22,5.9t-3.52,3.94t-5.42,1.4q-4.76,0-7.46-2.98t-2.7-8.26q0-3.36,1.22-5.9t3.52-3.94t5.46-1.4q4.76,0,7.44,2.98z M61.26,32.1q-1.06,1.7-1.06,5.3t1.06,5.3t3.18,1.7t3.18-1.7t1.06-5.3t-1.04-5.3t-3.16-1.7q-2.16,0-3.22,1.7z M97.88,27.96q-2.08,0.8-6.12,0.8q2,0.88,2.96,2.18t0.96,3.26q0,2.04-1.06,3.66t-3.04,2.54t-4.62,0.92q-1.4,0-2.48-0.28q-0.8,0.52-0.8,1.4q0,0.64,0.5,1.02t1.94,0.38l3.24,0q2.36,0,4.14,0.78t2.76,2.16t0.98,3.14q0,3.24-2.78,5.06t-8.02,1.82q-3.76,0-5.94-0.78t-3.06-2.26t-0.88-3.72l5.08,0q0,1.04,0.4,1.66t1.46,0.92t3.06,0.3q2.76,0,3.86-0.68t1.1-1.92q0-1.12-0.84-1.72t-2.48-0.6l-3.12,0q-3.16,0-4.72-1.18t-1.56-2.98q0-1.12,0.66-2.18t1.82-1.78q-1.96-1.08-2.86-2.54t-0.9-3.5q0-2.32,1.14-4.06t3.2-2.68t4.7-0.94q3.28,0.08,5.4-0.56t4.52-2z M84.14,30.98q-0.94,1.02-0.94,2.78q0,1.8,0.94,2.84t2.58,1.04q1.72,0,2.6-1t0.88-2.96q0-3.72-3.52-3.72q-1.6,0-2.54,1.02z M117.04,29.14q2.68,2.98,2.68,8.26q0,3.36-1.22,5.9t-3.52,3.94t-5.42,1.4q-4.76,0-7.46-2.98t-2.7-8.26q0-3.36,1.22-5.9t3.52-3.94t5.46-1.4q4.76,0,7.44,2.98z M106.38,32.1q-1.06,1.7-1.06,5.3t1.06,5.3t3.18,1.7t3.18-1.7t1.06-5.3t-1.04-5.3t-3.16-1.7q-2.16,0-3.22,1.7z M141.78,23.26q3.9,2.94,3.9,10.78q0,7.68-3.82,10.82t-9.78,3.14l-7.92,0l0-27.68l7.24,0q6.48,0,10.38,2.94z M130.04,24.64l0,19.04l2.4,0q3.4,0,5.26-2.1t1.86-7.54q0-3.76-0.94-5.84t-2.5-2.82t-3.8-0.74l-2.28,0z M167.84,39.12l-13.24,0q0.28,2.88,1.56,4.08t3.48,1.2q1.36,0,2.56-0.44t2.6-1.4l2.36,3.2q-3.56,2.88-8.04,2.88q-5,0-7.68-3t-2.68-8.12q0-3.24,1.14-5.82t3.32-4.06t5.18-1.48q4.52,0,7.04,2.84t2.52,7.92q0,0.4-0.12,2.2z M162.32,35.32q0-5.28-3.8-5.28q-1.76,0-2.74,1.3t-1.18,4.22l7.72,0l0-0.24z M186.8,28.72l-2.16,3.24q-2.68-1.68-5.28-1.68q-1.4,0-2.16,0.52t-0.76,1.4q0,0.64,0.34,1.08t1.28,0.84t2.82,0.96q3.36,0.92,5,2.46t1.64,4.22q0,2.12-1.22,3.68t-3.3,2.38t-4.64,0.82q-2.68,0-4.88-0.82t-3.76-2.26l2.8-3.12q2.68,2.08,5.68,2.08q1.6,0,2.54-0.62t0.94-1.7q0-0.84-0.36-1.32t-1.32-0.9t-3-0.98q-3.2-0.88-4.74-2.5t-1.54-4.02q0-1.8,1.04-3.24t2.94-2.26t4.42-0.82q4.48,0,7.68,2.56z M196.92,26.8l0,21.2l-5.68,0l0-21.2l5.68,0z M196.54,16.82q0.98,0.94,0.98,2.38t-0.98,2.38t-2.5,0.94t-2.48-0.94t-0.96-2.38t0.96-2.38t2.48-0.94t2.5,0.94z M221.48,27.96q-2.08,0.8-6.12,0.8q2,0.88,2.96,2.18t0.96,3.26q0,2.04-1.06,3.66t-3.04,2.54t-4.62,0.92q-1.4,0-2.48-0.28q-0.8,0.52-0.8,1.4q0,0.64,0.5,1.02t1.94,0.38l3.24,0q2.36,0,4.14,0.78t2.76,2.16t0.98,3.14q0,3.24-2.78,5.06t-8.02,1.82q-3.76,0-5.94-0.78t-3.06-2.26t-0.88-3.72l5.08,0q0,1.04,0.4,1.66t1.46,0.92t3.06,0.3q2.76,0,3.86-0.68t1.1-1.92q0-1.12-0.84-1.72t-2.48-0.6l-3.12,0q-3.16,0-4.72-1.18t-1.56-2.98q0-1.12,0.66-2.18t1.82-1.78q-1.96-1.08-2.86-2.54t-0.9-3.5q0-2.32,1.14-4.06t3.2-2.68t4.7-0.94q3.28,0.08,5.4-0.56t4.52-2z M207.74,30.98q-0.94,1.02-0.94,2.78q0,1.8,0.94,2.84t2.58,1.04q1.72,0,2.6-1t0.88-2.96q0-3.72-3.52-3.72q-1.6,0-2.54,1.02z M240.48,27.86q1.56,1.7,1.56,4.7l0,15.44l-5.68,0l0-14.48q0-1.72-0.58-2.42t-1.74-0.7q-1.2,0-2.18,0.74t-1.9,2.22l0,14.64l-5.68,0l0-21.2l4.92,0l0.44,2.68q1.32-1.64,2.9-2.48t3.58-0.84q2.8,0,4.36,1.7z M251.84,42.8q1,1,1,2.4t-1,2.42t-2.44,1.02q-1.4,0-2.4-1.02t-1-2.42t1-2.4t2.4-1q1.44,0,2.44,1zM271.8,48l-1.56-6.2l-8.68,0l-1.56,6.2l-6.12,0l8.52-27.68l7.16,0l8.48,27.68l-6.24,0z M262.68,37.44l6.44,0l-3.24-12.76z M286.48,20.32l0,27.68l-5.88,0l0-27.68l5.88,0z"></path>
    </g>
    <g data-name="icon" fill="#0e50d2" data="id:7242542"
       transform="translate(0.9384053247578166,131.68420030409408) scale(1.3662708066626645)">

        <path d="m50 32.637 7.6992 5.793-15.398-0.003907zm-17.387 41.477c-1.3008-0.003906-2.5273 0.625-3.2812 1.6875-6.668-5.332-11.02-13.039-12.137-21.508-1.1211-8.4688 1.0781-17.043 6.1328-23.926 5.0586-6.8828 12.578-11.547 20.996-13.012 2.2031-0.38281 3.6797-2.4805 3.2969-4.6836-0.38281-2.2031-2.4805-3.6797-4.6836-3.2969-10.367 1.7969-19.656 7.4961-25.953 15.93-6.293 8.4297-9.1211 18.953-7.8984 29.406 1.2227 10.453 6.4023 20.039 14.477 26.789-1.293 1.0977-1.7656 2.8828-1.1797 4.4766 0.58203 1.5898 2.0977 2.6484 3.793 2.6484h6.4375c2.2344 0 4.043-1.8086 4.043-4.043v-6.457c-0.023438-2.2188-1.8242-4.0039-4.043-4.0117zm28.938-2.4688h-23.102c-3.6406-0.003906-6.5898-2.9531-6.5938-6.5938v-18.75l-0.57422 0.42578v0.003907c-1.0234 0.76953-2.3359 1.0508-3.582 0.76562-1.25-0.28516-2.3125-1.1055-2.8984-2.2461-0.95312-1.957-0.35938-4.3203 1.4062-5.5938l21.18-15.938c1.543-1.1484 3.6602-1.1484 5.207 0l21.207 15.926c1.7422 1.2734 2.3359 3.6016 1.418 5.5547-0.74609 1.4609-2.2539 2.3828-3.8945 2.3828-0.94141 0.003907-1.8555-0.30469-2.6055-0.875l-0.57422-0.42578v18.75c0.003907 1.75-0.6875 3.4336-1.9258 4.6719-1.2383 1.2422-2.9141 1.9414-4.668 1.9414zm-13.633-23.594c0-2.3008-1.8672-4.1641-4.168-4.1641s-4.168 1.8633-4.168 4.1641c0 0.43359 0.35156 0.78125 0.78125 0.78125 0.43359 0 0.78125-0.34766 0.78125-0.78125-0.0625-0.73047 0.17969-1.4531 0.67578-1.9961 0.49609-0.54297 1.1953-0.85156 1.9297-0.85156s1.4336 0.30859 1.9297 0.85156c0.49609 0.54297 0.73828 1.2656 0.67578 1.9961v14.586c-0.12109 1.3477-1.25 2.3789-2.6055 2.3789s-2.4844-1.0312-2.6055-2.3789c0-0.43359-0.34766-0.78125-0.78125-0.78125-0.42969 0-0.78125 0.34766-0.78125 0.78125 0 2.3008 1.8672 4.1641 4.168 4.1641s4.168-1.8633 4.168-4.1641zm12.5 0c0-2.3008-1.8672-4.1641-4.168-4.1641s-4.168 1.8633-4.168 4.1641c0 0.43359 0.35156 0.78125 0.78125 0.78125 0.43359 0 0.78125-0.34766 0.78125-0.78125-0.0625-0.73047 0.17969-1.4531 0.67578-1.9961 0.49609-0.54297 1.1953-0.85156 1.9297-0.85156s1.4336 0.30859 1.9297 0.85156c0.49609 0.54297 0.73828 1.2656 0.67578 1.9961v14.586c-0.12109 1.3477-1.25 2.3789-2.6055 2.3789s-2.4844-1.0312-2.6055-2.3789c0-0.43359-0.34766-0.78125-0.78125-0.78125-0.42969 0-0.78125 0.34766-0.78125 0.78125 0 2.3008 1.8672 4.1641 4.168 4.1641s4.168-1.8633 4.168-4.1641zm0.082031-9.5078-10.031-7.5508v-0.003907c-0.27734-0.20703-0.66016-0.20703-0.9375 0l-10.043 7.5547c-0.26953 0.19922-0.37891 0.55078-0.26953 0.87109 0.10547 0.32031 0.40234 0.53516 0.73828 0.53516h20.074c0.33984 0 0.64062-0.21875 0.73828-0.54297 0.10938-0.31641 0-0.66797-0.26953-0.86328zm18.426-17.887c1.0703-1.1875 1.3398-2.8906 0.69141-4.3516-0.64844-1.4609-2.0938-2.4023-3.6914-2.4102h-6.4258c-2.2344 0-4.0469 1.8086-4.0508 4.043v6.4258c0 2.2383 1.8125 4.0547 4.0508 4.0547 1.5 0.003906 2.8789-0.82812 3.5742-2.1562 5.8867 5.7266 9.4375 13.438 9.9531 21.637 0.51562 8.1992-2.0391 16.297-7.1602 22.719-5.125 6.418-12.457 10.703-20.566 12.02-2.1094 0.30078-3.6211 2.1914-3.4531 4.3164 0.16797 2.125 1.957 3.7539 4.0898 3.7227 0.21484 0.015625 0.42969 0.015625 0.64453 0 10.078-1.6172 19.195-6.918 25.586-14.875 6.3906-7.9609 9.5977-18.008 8.9961-28.195-0.59766-10.191-4.957-19.793-12.238-26.949z"></path>
        <rect x="5.806657791137695" y="6.314596176147461" width="88.42961120605469" height="87.37411499023438"
              fill="transparent" pointer-events="all"></rect>
    </g>
    <g data-name="business_name" fill="#0e50d2" data="id:183"
       transform="translate(146.31502636619936,132.889402020854) scale(1.7820126991784266)">
        <path d="M17.72,40.04l1,2.92q0.8,2.64,1.92,3.4q-1.76,1.96-4.2,1.96q-1.32,0-2-0.62t-1.2-2.18l-1.2-3.44q-0.4-1.24-0.92-1.66t-1.4-0.42t-1.24,0.04l0,7.96q-1.32,0.24-3.04,0.24t-3.04-0.24l0-29.16l0.28-0.28l2.4,0q1.88,0,2.64,0.84t0.76,2.92l0,12.56l0.64,0q0.72,0,1.12-0.72l2.08-4q1.12-2.28,3.52-2.28q1.16,0,3.48,0.08l0.24,0.32l-3.08,5.96q-0.8,1.52-2.04,2.36q2.4,0.88,3.28,3.44z M30.88,43.24l3.48-15.16q1.12-0.24,2.52-0.24q1.72,0,3,0.48l0.2,0.28q-4.08,14.88-5.56,19.4q-2.04,0.24-4.3,0.24t-3.22-0.62t-1.48-2.38l-4.8-16.72q1.96-0.84,3.48-0.84t2.36,0.66t1.24,2.26l1.8,7.48q0.2,0.76,0.88,4.84q0.04,0.32,0.4,0.32z M59.64,42.72q0,2.72-0.82,4.02t-3.14,1.3l-11.92,0q-0.76-0.72-1.46-1.82t-0.7-1.98q-0.04-1.56,1.14-3.3t3.46-3.82l4.32-3.92q2.12-1.92,2.12-3.8q0-1.24-0.74-2.04t-2.06-0.8q-1.28,0-2.2,1.02t-1.32,2.5q-0.6,0-1.26-0.12t-1.28-0.36t-1.12-0.58t-0.78-0.78q0.4-1.48,1.2-2.72t1.92-2.14t2.58-1.4t3.22-0.5q1.72,0,3.22,0.58t2.6,1.64t1.72,2.56t0.62,3.3q-0.04,2.36-1.24,4.2t-3.52,3.76l-2.88,2.4q-2.76,2.36-3.24,3.24q1.72-0.2,3.22-0.32t2.86-0.12l5.48,0z M78.16,43.44l0.04,2.88l0,1.68q-1.36,0.24-3.06,0.24t-2.98-0.24l0-1.68l0.04-2.88l-2.96,0.04l-5.76,0q-1.32-2.08-1.32-3.5t0.72-2.94l6.44-15.28q1.4-0.24,3.2,0.12t2.48,1.16l-2.68,6.44q-2.56,6.32-4.36,8.92l0.12,0.2q1.44-0.16,4.08-0.24l0-2.12q0-2.32,1.14-3.64t3.18-1.32l1.44,0l0.28,0.24l0,3.88l-0.04,2.92l2.28-0.04l1.08,0q0.16,0.96,0.16,2.38t-0.4,2.78l-3.12,0z M85.12,42.84q0.68-0.36,1.48-0.54t1.64-0.18q1.84,0,3.16,0.72q0.48,1.04,0.48,2.44q0,0.68-0.12,1.3t-0.36,1.1q-1.12,0.76-3.16,0.76q-2,0-3.12-0.76q-0.24-0.48-0.36-1.1t-0.12-1.3q0-1.4,0.48-2.44z M96.4,47l0-28.16l0.28-0.28l2.36,0q1.84,0,2.64,0.84t0.8,2.92l0,6.68q2.08-1.36,4.64-1.36q3.52,0,5.3,2.84t1.78,7.64q0,2.28-0.72,4.16t-2,3.24t-3.12,2.1t-4.04,0.74q-4.56,0-7.92-1.36z M105.24,32.64q-1.56,0-2.76,1.32l0,9.76q0.4,0.08,0.86,0.12t0.98,0.04q3.48,0,3.48-6.04q0-5.16-2.56-5.2z M135.08,28.68l-4.92,18.8q-1.16,4.32-3.08,6.64q-2.2,2.64-6.76,2.64q-2.44,0-4.84-0.8q-0.12-1.08,0.24-2.42t1-2.06q1.8,0.6,3.6,0.6q2.96,0,3.92-3.24l0.16-0.56q-3.48,0-4.16-2.52l-4.64-17.24q1.84-0.84,3.44-0.84t2.34,0.6t1.1,2.08l1.84,7.68q0.28,1.08,0.92,5.28q0.04,0.28,0.32,0.28l3.48-15.52q0.96-0.28,2.6-0.28q1.84,0,3.2,0.44z"></path>
        <rect x="-0.6000003814697266" y="15.559999465942383" width="138.6800079345703" height="44.20000076293945"
              fill="transparent" pointer-events="all"></rect>
    </g>
</svg>