<svg fill="none" xmlns="http://www.w3.org/2000/svg" viewBox="0 0 16 16">
    <path fill-rule="evenodd" clip-rule="evenodd"
          d="M2.333 6.333a5.667 5.667 0 1111.334 0c0 2.403-1.373 4.638-2.649 6.212A19.964 19.964 0 018.65 14.99l-.168.143-.047.038-.013.01-.003.004h-.002L8 14.667l-.417.52h-.001l-.004-.004-.013-.01-.046-.038a17.716 17.716 0 01-.757-.675 19.967 19.967 0 01-1.78-1.914c-1.275-1.576-2.649-3.81-2.649-6.213zm3 0a2.667 2.667 0 115.334 0 2.667 2.667 0 01-5.333 0z"
          fill="#E53B35"></path>
    <path d="M7.583 15.187c.244.195.59.195.834 0L8 14.667l-.417.52z" fill="#E53B35"></path>
</svg>